<?xml version="1.0" encoding="UTF-8"?>
<svg version="1.1" xmlns="http://www.w3.org/2000/svg" width="2560" height="411">
<path d="M0 0 C0.90572754 0.16097168 1.81145508 0.32194336 2.74462891 0.48779297 C40.10300197 7.25481339 79.07713029 22.84506377 108 48 C109.16208984 48.94746094 109.16208984 48.94746094 110.34765625 49.9140625 C118.48307116 56.7320563 126.2907215 65.74710759 127.36076355 76.68907166 C127.35410172 78.00589432 127.34743988 79.32271698 127.34057617 80.67944336 C127.34101425 81.41198334 127.34145233 82.14452332 127.34190369 82.89926147 C127.33983037 85.29640295 127.31656967 87.69282599 127.29296875 90.08984375 C127.28736758 91.76135374 127.28309994 93.43286868 127.28010559 95.10438538 C127.26869778 99.48566488 127.23926601 103.866642 127.20599365 108.24780273 C127.17520476 112.7257071 127.16158147 117.20366073 127.14648438 121.68164062 C127.11439204 130.45456523 127.06324541 139.22724491 127 148 C123.92170941 145.12272317 122.58979387 142.24364124 120.875 138.375 C110.14842574 114.85297029 96.20960608 92.21747801 77.23828125 74.33984375 C76 73 76 73 76 71 C75.41992188 70.75121094 74.83984375 70.50242187 74.2421875 70.24609375 C71.67760512 68.82082932 70.12129212 67.21026176 68.125 65.0625 C62.25240126 59.05445417 55.70695171 54.03071266 49 49 C47.69869141 48.02353516 47.69869141 48.02353516 46.37109375 47.02734375 C16.10769106 25.13997343 -24.71938703 14.18530892 -61.9375 18.6875 C-82.90228655 22.18163109 -102.15647717 29.91387842 -119 43 C-119.80727539 43.62213379 -119.80727539 43.62213379 -120.63085938 44.25683594 C-133.37239164 54.18268376 -143.2195761 65.81632719 -151 80 C-151.51997559 80.94713867 -152.03995117 81.89427734 -152.57568359 82.87011719 C-183.73926564 140.18465261 -193.992394 204.02085641 -175.41845703 267.30786133 C-167.31111695 293.94877138 -155.83398991 322.0777225 -137 343 C-136.34257812 343.79792969 -135.68515625 344.59585937 -135.0078125 345.41796875 C-124.79083677 357.48747305 -112.00509226 365.91670582 -98 373 C-96.54400391 373.73863281 -96.54400391 373.73863281 -95.05859375 374.4921875 C-67.73476508 387.00751159 -35.23325752 386.99066439 -7.296875 376.72265625 C-0.26985255 373.98413784 6.37598912 370.58878336 13 367 C13.74314453 366.60232422 14.48628906 366.20464844 15.25195312 365.79492188 C42.41617174 351.98650775 42.41617174 351.98650775 59.05729675 327.75257874 C59.96886485 324.12393835 60.259248 321.09724007 60.2746582 317.36889648 C60.28419022 316.09324326 60.29372223 314.81759003 60.30354309 313.50328064 C60.30328146 312.12588473 60.30234342 310.7484888 60.30078125 309.37109375 C60.30467695 307.93489968 60.30901339 306.49870675 60.31376648 305.06251526 C60.32120733 302.05588039 60.32095503 299.04936295 60.31567383 296.04272461 C60.30991175 292.22934196 60.32674081 288.4164502 60.3500185 284.60314846 C60.3649129 281.63531277 60.365606 278.66759066 60.36250877 275.6997242 C60.36301514 274.29620462 60.36812082 272.89267748 60.37832069 271.48919487 C60.49228021 253.60255096 57.14680228 238.50532622 45 225 C43.06371171 223.22082282 41.07506329 221.61956159 39 220 C39 219.67 39 219.34 39 219 C75.3 219 111.6 219 149 219 C145.82467193 222.70454941 142.74875498 226.27783505 139.4375 229.8125 C128.71407987 242.24030478 127.54005478 258.33095014 127.65044022 274.10341644 C127.66454213 276.30940365 127.6575369 278.51452726 127.64559937 280.72052002 C127.61512 286.9782969 127.6195103 293.23584783 127.63964844 299.49365234 C127.65065419 303.35733057 127.63720791 307.22034472 127.60975266 311.08393097 C127.60437652 312.53653819 127.60820798 313.98921458 127.62215042 315.44176483 C127.75091902 328.99431998 124.53435281 340.04635443 115 350 C74.07700605 388.59059533 13.90371861 405.61616336 -41 407 C-42.93552734 407.061875 -42.93552734 407.061875 -44.91015625 407.125 C-78.34705299 407.70714401 -113.02073051 400.86350407 -143 386 C-143.77150391 385.62504395 -144.54300781 385.25008789 -145.33789062 384.86376953 C-164.94162516 375.27359703 -182.85386043 362.77287637 -198 347 C-198.845625 346.154375 -199.69125 345.30875 -200.5625 344.4375 C-201.366875 343.633125 -202.17125 342.82875 -203 342 C-203.51135498 341.50677246 -204.02270996 341.01354492 -204.54956055 340.50537109 C-236.24915952 309.59679305 -257.41503266 259.96043196 -258.21530151 215.81141663 C-258.22288483 215.08216476 -258.23046814 214.3529129 -258.23828125 213.6015625 C-258.24812042 212.81764633 -258.25795959 212.03373016 -258.26809692 211.22605896 C-258.80802846 156.94688236 -243.51171111 106.95898274 -207 66 C-206.54625 65.48453613 -206.0925 64.96907227 -205.625 64.43798828 C-174.84400806 29.5361036 -131.91931989 6.92288731 -86 0 C-85.09894531 -0.14808105 -84.19789063 -0.29616211 -83.26953125 -0.44873047 C-56.16411869 -4.83871099 -27.01873693 -5.07893748 0 0 Z " fill="#FFFFFF" transform="translate(258,4)"/>
<path d="M0 0 C8.1632534 7.76356889 14.47853572 16.42763244 15.24832153 27.99205017 C15.24388031 29.27334305 15.23943909 30.55463593 15.23486328 31.87475586 C15.23515533 32.5877887 15.23544739 33.30082153 15.23574829 34.03546143 C15.23436669 36.36751935 15.21886146 38.69924862 15.203125 41.03125 C15.1993907 42.65792161 15.1965457 44.28459547 15.19454956 45.91127014 C15.18694596 50.17410591 15.16732589 54.43680346 15.1451416 58.69958496 C15.12461236 63.05686575 15.11553276 67.41416907 15.10546875 71.77148438 C15.08407665 80.3073548 15.04998062 88.84311329 15.0078125 97.37890625 C11.86590978 94.47199348 10.57617916 91.28868462 9.0078125 87.37890625 C-6.15582754 51.40194072 -33.45585724 19.16270309 -64.9921875 -3.62109375 C-65.56662598 -4.04132812 -66.14106445 -4.4615625 -66.73291016 -4.89453125 C-96.83574178 -26.70937492 -139.38364248 -37.87099086 -176.31298828 -32.26904297 C-198.66987703 -28.37657006 -218.60724149 -19.12367926 -235.9921875 -4.62109375 C-236.87648438 -3.89019531 -237.76078125 -3.15929688 -238.671875 -2.40625 C-249.9013007 7.26644846 -257.88103554 18.54421454 -264.9921875 31.37890625 C-265.4267627 32.15379395 -265.86133789 32.92868164 -266.30908203 33.72705078 C-298.27759765 91.13410103 -305.12029806 156.08238696 -287.21142578 219.12744141 C-275.49081336 258.99812483 -254.21626413 297.99009823 -216.8671875 318.62890625 C-183.58136268 336.1171659 -146.48741882 335.66679179 -111.1171875 325.12890625 C-55.8314676 307.79894145 -11.70524714 268.37453232 15.25268555 217.82592773 C18.20592584 212.16247814 20.70098926 206.33450278 23.0078125 200.37890625 C23.3378125 200.37890625 23.6678125 200.37890625 24.0078125 200.37890625 C23.51679945 214.73304808 21.55528772 228.9292821 19.67919922 243.15356445 C19.22007917 246.63730677 18.77418617 250.12260442 18.33160591 253.60848141 C17.90117447 256.97965568 17.4576279 260.34907349 17.015625 263.71875 C16.78107101 265.57523415 16.78107101 265.57523415 16.54177856 267.46922302 C14.4591167 283.00419954 9.62550207 292.41193306 -2.9296875 302.31640625 C-5.25548943 304.04553108 -7.61751113 305.71773901 -9.9921875 307.37890625 C-10.64832031 307.84409668 -11.30445312 308.30928711 -11.98046875 308.78857422 C-69.64695303 349.41846769 -137.37356839 361.52327055 -206.3046875 349.62890625 C-257.17428466 340.12809661 -304.76252964 310.23850177 -334.47314453 267.62988281 C-365.78680997 221.22808349 -377.74142245 166.21310881 -367.37402344 111.09228516 C-360.66037847 78.50618743 -347.27943837 48.09415565 -325.9921875 22.37890625 C-325.5163623 21.80156738 -325.04053711 21.22422852 -324.55029297 20.62939453 C-291.8662205 -18.80222009 -246.42996266 -45.08113359 -195.4296875 -51.74609375 C-194.19283203 -51.91496094 -192.95597656 -52.08382812 -191.68164062 -52.2578125 C-124.40179611 -61.29487252 -51.95878666 -45.51481181 0 0 Z " fill="#FFFFFF" transform="translate(2217.9921875,54.62109375)"/>
<path d="M0 0 C1.31052338 0.00323273 1.31052338 0.00323273 2.64752197 0.00653076 C16.39609291 0.06075648 29.79091749 0.63369592 43.3125 3.3125 C44.33375977 3.51117676 45.35501953 3.70985352 46.40722656 3.91455078 C87.06979734 12.05316127 140.33101944 30.77467728 164.875 66.79296875 C168.28680676 72.7729018 169.68820929 77.04729757 169.65307617 83.99194336 C169.65351425 84.72448334 169.65395233 85.45702332 169.65440369 86.21176147 C169.65233037 88.60890295 169.62906967 91.00532599 169.60546875 93.40234375 C169.59986758 95.07385374 169.59559994 96.74536868 169.59260559 98.41688538 C169.58119778 102.79816488 169.55176601 107.179142 169.51849365 111.56030273 C169.48770476 116.0382071 169.47408147 120.51616073 169.45898438 124.99414062 C169.42689204 133.76706523 169.37574541 142.53974491 169.3125 151.3125 C166.79189744 148.90128137 165.43857143 146.81678625 164 143.62109375 C163.35538818 142.21754639 163.35538818 142.21754639 162.69775391 140.78564453 C162.24062012 139.78388184 161.78348633 138.78211914 161.3125 137.75 C150.89532258 115.53246587 137.40960558 95.93719225 120.3125 78.3125 C119.74805176 77.72227051 119.18360352 77.13204102 118.60205078 76.52392578 C110.07390232 67.62907381 101.31129623 59.52272594 91.3125 52.3125 C90.63348633 51.81621094 89.95447266 51.31992187 89.25488281 50.80859375 C78.21633352 42.81878665 67.07188257 37.04392537 54.3125 32.3125 C53.10722656 31.84328125 51.90195313 31.3740625 50.66015625 30.890625 C17.67729633 18.86987515 -19.73028477 16.74290461 -52.13232422 31.41992188 C-62.44155358 36.34699324 -71.9392494 41.92729127 -80.6875 49.3125 C-81.68007812 50.14265625 -82.67265625 50.9728125 -83.6953125 51.828125 C-118.93640182 82.1724272 -137.20909769 136.2681047 -141.6875 181.3125 C-141.79835938 182.39660156 -141.90921875 183.48070312 -142.0234375 184.59765625 C-146.9902349 241.98430184 -130.87543044 303.5262595 -94.125 348.48046875 C-76.18329196 369.32620325 -48.48488164 382.23250889 -21.6875 386.3125 C-20.51767578 386.50779297 -20.51767578 386.50779297 -19.32421875 386.70703125 C14.16426303 391.4370428 52.67620803 380.42351789 81.3125 363.3125 C82.12605957 362.83119629 82.93961914 362.34989258 83.77783203 361.85400391 C94.81051394 355.29102447 105.42613648 348.51742318 115.3125 340.3125 C115.89612305 339.82894043 116.47974609 339.34538086 117.08105469 338.84716797 C127.94591266 329.80459864 137.543213 320.44738504 146.3125 309.3125 C147.37597656 307.99185547 147.37597656 307.99185547 148.4609375 306.64453125 C160.28611714 291.51086273 171.21445253 273.6066424 177.3125 255.3125 C177.9725 255.3125 178.6325 255.3125 179.3125 255.3125 C178.3714444 262.86673276 177.42933899 270.42083411 176.48657227 277.97485352 C176.16733165 280.53374408 175.84831369 283.09266243 175.52954102 285.65161133 C175.37606201 286.88355225 175.22258301 288.11549316 175.06445312 289.38476562 C174.91146759 290.6135141 174.75848206 291.84226257 174.6008606 293.10824585 C174.29115793 295.58254801 173.97887682 298.05652879 173.66403198 300.53018188 C172.92666523 306.32716273 172.2149639 312.1230232 171.58837891 317.93310547 C171.47065628 318.9656395 171.35293365 319.99817352 171.23164368 321.06199646 C171.01615446 322.95750758 170.81456406 324.85468399 170.63102722 326.7535553 C169.17313579 339.17035927 162.5298846 348.26762368 152.9440918 355.92211914 C123.47843301 378.77420795 89.66877851 395.01740973 53.3125 403.3125 C52.4968457 403.49941406 51.68119141 403.68632812 50.84082031 403.87890625 C-5.87184643 416.44754065 -70.8446685 408.60262906 -120.66088867 377.79321289 C-123.38682676 376.03480617 -126.04348672 374.19140828 -128.6875 372.3125 C-129.68394531 371.60738281 -130.68039062 370.90226562 -131.70703125 370.17578125 C-147.4255803 358.70103444 -161.74565709 345.71747736 -173.6875 330.3125 C-174.11675781 329.7649707 -174.54601563 329.21744141 -174.98828125 328.65332031 C-182.68143439 318.78191848 -188.94644465 308.42274111 -194.6875 297.3125 C-195.01202148 296.6947168 -195.33654297 296.07693359 -195.67089844 295.44042969 C-208.0588986 271.60311453 -215.73582047 243.29702384 -215.890625 216.38671875 C-215.89768463 215.56557083 -215.90474426 214.74442291 -215.91201782 213.89839172 C-216.13522378 180.33007853 -216.13522378 180.33007853 -212.6875 165.3125 C-212.48882324 164.38695312 -212.29014648 163.46140625 -212.08544922 162.5078125 C-203.58603605 123.28954651 -184.48981313 89.08325364 -156.6875 60.3125 C-156.01589844 59.58933594 -155.34429688 58.86617187 -154.65234375 58.12109375 C-148.6170723 51.77829254 -141.65310306 46.57780832 -134.6875 41.3125 C-134.13320312 40.88678711 -133.57890625 40.46107422 -133.0078125 40.02246094 C-105.25637532 18.79393932 -72.08135746 7.00245376 -37.6875 2.3125 C-37.04827606 2.22529694 -36.40905212 2.13809387 -35.75045776 2.04824829 C-23.81469727 0.46242924 -12.03366945 -0.05386448 0 0 Z " fill="#FFFFFF" transform="translate(1429.6875,-0.3125)"/>
<path d="M0 0 C35.31 0 70.62 0 107 0 C105.87327788 3.38016635 105.10762071 3.88986818 102.375 6 C93.81180802 13.32014798 87.86580677 24.10533027 86.76717949 35.39182878 C86.38088984 42.52142373 86.45542915 49.66064897 86.48242188 56.7980957 C86.4769955 59.20899884 86.46986995 61.61989865 86.46118164 64.03079224 C86.44488794 69.87766785 86.44720093 75.72431234 86.4588322 81.57119481 C86.46790061 86.32861522 86.46907587 91.08597817 86.46473694 95.84340477 C86.46412401 96.52296227 86.46351107 97.20251978 86.46287957 97.90266993 C86.46160053 99.28362457 86.46030368 100.66457919 86.4589892 102.0455338 C86.44760618 114.96940901 86.46065986 127.8931704 86.48219067 140.81702694 C86.50004747 151.87734257 86.49696487 162.93749015 86.47851562 173.99780273 C86.45704752 186.87375546 86.44871731 199.74960854 86.46096468 212.62557667 C86.46223873 214.00210041 86.46349621 215.37862417 86.46473694 216.75514793 C86.46535404 217.43223264 86.46597114 218.10931734 86.46660694 218.80691976 C86.470043 223.55045086 86.46426917 228.29391813 86.45481873 233.03743935 C86.44320414 239.4389921 86.45138832 245.84022983 86.47439575 252.24174881 C86.47965361 254.58172395 86.47821965 256.92172592 86.46934509 259.26169014 C86.42615246 271.81452107 86.79141199 283.07842994 91 295 C91.41238796 296.19775795 91.41238796 296.19775795 91.83310699 297.41971302 C100.29350083 320.29260106 117.27365233 339.0277615 139.125 349.75 C179.90867133 368.04563099 225.70365353 371.26399901 268 356 C281.48493671 350.82939543 295.11010394 344.6167967 306 335 C306.79921875 334.29488281 307.5984375 333.58976562 308.421875 332.86328125 C324.83605676 317.44312603 336.12612387 294.49943643 337.09279668 271.82317007 C337.13134676 269.30362873 337.13809211 266.78587208 337.13371277 264.26603699 C337.13597833 263.30339331 337.13824388 262.34074964 337.14057809 261.34893495 C337.14689356 258.13259472 337.1460903 254.9162969 337.14526367 251.69995117 C337.14825669 249.3900497 337.15165954 247.08014873 337.15544128 244.77024841 C337.16427084 238.50159369 337.16661896 232.23295263 337.16725707 225.96429229 C337.16796815 222.04629039 337.17010356 218.12829195 337.17275429 214.21029091 C337.18152692 201.24264559 337.18617443 188.27500995 337.18542381 175.3073618 C337.18538386 174.6090159 337.1853439 173.91067001 337.18530273 173.19116211 C337.18526185 172.49195864 337.18522097 171.79275517 337.18517885 171.07236371 C337.1847725 159.74372922 337.19434065 148.41512799 337.2084411 137.08650311 C337.22282185 125.44032252 337.22952742 113.79415966 337.22884732 102.14797002 C337.22859254 95.61515871 337.23143285 89.08238504 337.24202538 82.54958153 C337.2517177 76.40428531 337.25177769 70.25906264 337.24450874 64.11376381 C337.24346433 61.86198952 337.24581726 59.61021062 337.2518692 57.35844421 C337.25961232 54.27718152 337.2549289 51.19617138 337.24723816 48.11491394 C337.2549535 46.78837312 337.2549535 46.78837312 337.26282471 45.4350335 C337.18420812 31.11494697 333.2238096 18.65895381 323.28125 8.15625 C320.98721122 5.91765383 320.98721122 5.91765383 318.21875 3.84375 C317.4865625 3.2353125 316.754375 2.626875 316 2 C316 1.34 316 0.68 316 0 C336.79 0 357.58 0 379 0 C379 0.66 379 1.32 379 2 C377.49609375 3.41015625 377.49609375 3.41015625 375.4375 5.0625 C364.5250908 14.41047531 359.94096139 24.96517339 358 39 C357.75436795 42.48251455 357.73039719 45.9434576 357.7484436 49.43362427 C357.74547346 50.42333155 357.74250333 51.41303882 357.73944318 52.43273723 C357.73186374 55.71710027 357.73827229 59.00128126 357.74462891 62.28564453 C357.7418761 64.6537437 357.73819445 67.02184194 357.73365784 69.38993835 C357.72556858 74.47531508 357.72337169 79.5606479 357.72560501 84.64603043 C357.7282069 92.01697493 357.71701041 99.38783265 357.70105521 106.7587577 C357.67513935 118.74476394 357.65509836 130.73077024 357.64160156 142.71679688 C357.64079119 143.43283647 357.63998082 144.14887607 357.6391459 144.88661383 C357.62793629 155.03663332 357.6226453 165.18664733 357.61975877 175.33667217 C357.61955478 176.05089262 357.61935079 176.76511307 357.61914062 177.50097656 C357.61894069 178.21431468 357.61874075 178.92765279 357.61853476 179.66260721 C357.61478918 191.59939989 357.59561797 203.53610992 357.56404626 215.47286117 C357.54356886 223.4656478 357.54142212 231.45816957 357.55232644 239.45099187 C357.55494785 244.44167157 357.5408599 249.43220444 357.52224541 254.42284584 C357.51695784 256.72166595 357.5183607 259.0205137 357.52728081 261.31932259 C357.6448356 294.29734248 347.14273257 322.87413073 323.75 346.6875 C312.90129441 357.42546317 300.75323355 364.59998043 287 371 C286.36755371 371.30147949 285.73510742 371.60295898 285.08349609 371.91357422 C231.82054849 397.21312927 168.93664594 398.27692278 113.54443359 379.45947266 C95.15375747 372.88687431 77.20192209 364.33323982 62 352 C60.71996094 350.96939453 60.71996094 350.96939453 59.4140625 349.91796875 C39.11733212 332.66254655 25.55567464 306.26681874 22 280 C21.85549314 276.7111271 21.85814624 273.42565486 21.86196899 270.13400269 C21.85914771 269.1450397 21.85632643 268.15607672 21.85341966 267.13714516 C21.84509152 263.82563438 21.84373693 260.51415711 21.84228516 257.20263672 C21.83761558 254.82716274 21.83247178 252.45168966 21.82688904 250.07621765 C21.81561564 244.96074381 21.80717775 239.84527576 21.80076981 234.72979355 C21.79042025 226.63560582 21.76984987 218.5414588 21.74765015 210.44729614 C21.74017092 207.67481054 21.73275708 204.90232477 21.72536278 202.12983894 C21.72258693 201.09057061 21.72258693 201.09057061 21.719755 200.03030696 C21.69884071 192.14878933 21.68000726 184.26726721 21.66210938 176.38574219 C21.6596521 175.3054742 21.6596521 175.3054742 21.65714519 174.20338263 C21.63088233 162.54303059 21.61222541 150.88267541 21.59551747 139.22230636 C21.57806427 127.2348499 21.54918455 115.24745515 21.5106281 103.26004803 C21.48938526 96.53600595 21.47410455 89.81205675 21.47182083 83.08797836 C21.46966895 76.75960022 21.45374419 70.43140503 21.42743111 64.10308266 C21.42025735 61.78604581 21.41812777 59.46898675 21.42153358 57.1519413 C21.4457352 37.54982233 20.02256778 22.0711607 6.18359375 7.12890625 C4.07440783 4.97151963 4.07440783 4.97151963 1.72265625 3.33984375 C0.86994141 2.67662109 0.86994141 2.67662109 0 2 C0 1.34 0 0.68 0 0 Z " fill="#FFFFFF" transform="translate(623,17)"/>
<path d="M0 0 C34.98 0 69.96 0 106 0 C104 4 104 4 101.3125 6.0625 C92.93045883 12.74354015 87.77543759 24.61381673 86 35 C85.90989549 36.87281317 85.86922816 38.7483605 85.86577892 40.62333679 C85.85909216 42.31394918 85.85909216 42.31394918 85.85227031 44.03871536 C85.85245467 45.2720599 85.85263903 46.50540443 85.85282898 47.77612305 C85.84915229 49.09021023 85.8454756 50.40429741 85.8416875 51.75820541 C85.83168699 55.40452057 85.82795385 59.05081926 85.82529819 62.69714618 C85.82138931 66.63054777 85.81181134 70.56393641 85.80308533 74.49732971 C85.78333673 83.99631525 85.77325645 93.49530182 85.76435754 102.99430275 C85.75997175 107.47052708 85.75460567 111.94675023 85.74936867 116.42297363 C85.7323575 131.30831659 85.71786433 146.19365882 85.71061993 161.07901001 C85.70871011 164.94053142 85.70678977 168.80205283 85.70483398 172.66357422 C85.70410837 174.10317076 85.70410837 174.10317076 85.7033681 175.57185006 C85.69507153 191.1115496 85.6697404 206.65117208 85.63725331 222.19083798 C85.60415214 238.15474577 85.58616838 254.11861444 85.58297569 270.08255672 C85.58081335 279.04177061 85.57210531 288.00087212 85.54651451 296.96005249 C85.52476567 304.59170261 85.5167776 312.22321305 85.52648129 319.85489064 C85.531014 323.74515702 85.52920029 327.63513547 85.50971985 331.52536201 C85.49200076 335.09485519 85.49315568 338.66385227 85.50861714 342.23335135 C85.51208961 344.11936932 85.49603234 346.00539303 85.47901267 347.89133739 C85.60088507 364.19521524 91.47039056 377.59764894 103 389 C103.66 389.33 104.32 389.66 105 390 C105 390.66 105 391.32 105 392 C70.68 392 36.36 392 1 392 C1 391.34 1 390.68 1 390 C2.14920716 388.97616089 3.34659048 388.00615653 4.5625 387.0625 C13.86758579 379.07494849 19.0254973 367.81615794 20.36568546 355.69170666 C20.51069578 352.18369296 20.53365863 348.69681375 20.50793457 345.18591309 C20.51255585 343.84339141 20.51891694 342.50087482 20.52684355 341.15836859 C20.54339196 337.50718575 20.53535754 333.85642632 20.52289867 330.20524287 C20.51379042 326.25287444 20.52784633 322.30057518 20.53881836 318.34822083 C20.55654696 310.62054868 20.55278895 302.89303248 20.5411678 295.16535437 C20.53211137 288.8814381 20.530919 282.59756534 20.53526306 276.31364441 C20.53587599 275.41716677 20.53648893 274.52068914 20.53712043 273.59704551 C20.53839941 271.77551495 20.53969627 269.9539844 20.5410108 268.13245386 C20.55240002 251.07684457 20.53932896 234.02132147 20.51780933 216.96572632 C20.49993986 202.35096842 20.50304443 187.73633764 20.52148438 173.12158203 C20.54292044 156.12441559 20.55130153 139.12732457 20.53903532 122.1301465 C20.53776121 120.31554954 20.53650372 118.50095257 20.53526306 116.68635559 C20.53464596 115.79368385 20.53402886 114.90101211 20.53339306 113.98128971 C20.52994836 107.70944705 20.53574947 101.43765247 20.54518127 95.16581726 C20.55643309 87.51603867 20.5532946 79.86642414 20.5320583 72.2166642 C20.5215905 68.31825863 20.51735246 64.42012596 20.53065491 60.52172279 C20.54267414 56.94512067 20.53586189 53.36904146 20.5147447 49.79248601 C20.50824027 47.90289386 20.52112904 46.01326469 20.53497362 44.12371206 C20.41951265 31.39465447 17.02805777 20.01951397 9 10 C6.65803762 7.71770545 4.2718012 5.60556991 1.72265625 3.55859375 C1.15417969 3.04425781 0.58570312 2.52992187 0 2 C0 1.34 0 0.68 0 0 Z " fill="#FFFFFF" transform="translate(2454,17)"/>
</svg>
