<?xml version="1.0" encoding="UTF-8"?>
<svg version="1.1" xmlns="http://www.w3.org/2000/svg" width="2560" height="398">
<path d="M0 0 C1.08107529 -0.00782324 2.16215057 -0.01564648 3.27598572 -0.02370679 C4.46826279 -0.01701463 5.66053986 -0.01032246 6.88894653 -0.00342751 C8.15217239 -0.00810748 9.41539825 -0.01278745 10.71690369 -0.01760924 C14.23081576 -0.0301718 17.74448445 -0.0239249 21.25839758 -0.01465058 C25.04608174 -0.00788071 28.83372317 -0.0183318 32.62139893 -0.02659035 C40.0489672 -0.03995816 47.47644472 -0.03703463 54.90401661 -0.02835242 C60.94831724 -0.02158009 66.99259242 -0.02065724 73.03689575 -0.02392387 C73.89691625 -0.02438357 74.75693676 -0.02484327 75.64301848 -0.0253169 C77.390289 -0.0262761 79.1375595 -0.02724874 80.88483 -0.02823468 C97.29055778 -0.03679959 113.69623538 -0.02694146 130.10195494 -0.01083358 C144.14865322 0.00253245 158.19527699 0.00027443 172.24197388 -0.01358986 C188.56378086 -0.02969226 204.88554359 -0.03593534 221.20735741 -0.02675307 C222.95312881 -0.02579749 224.69890022 -0.02485437 226.44467163 -0.02392387 C227.7329375 -0.02322963 227.7329375 -0.02322963 229.04722893 -0.02252137 C235.0691657 -0.01994256 241.0910742 -0.02427924 247.11300659 -0.03136253 C254.47480595 -0.03983131 261.83650952 -0.03738724 269.1982981 -0.0215203 C272.94746957 -0.01370326 276.69648216 -0.01043125 280.44565201 -0.02046776 C320.17654765 -0.11778493 353.46424697 7.31761246 382.81130981 35.37752342 C383.48420044 35.98724998 384.15709106 36.59697655 384.85037231 37.22517967 C407.15658811 58.15391999 418.11886564 89.75632623 419.16091919 119.7505703 C419.5894389 154.59251867 406.41178971 184.2330869 382.81130981 209.37752342 C382.29697388 209.96791405 381.78263794 210.55830467 381.25271606 211.16658592 C361.71994316 232.5765344 330.02661956 242.8114209 301.9507103 244.55519295 C294.9309866 244.8466027 287.91028377 244.86866384 280.88552856 244.88924217 C278.6735081 244.9061412 276.46149692 244.92429816 274.24949646 244.94363976 C268.50407827 244.99057969 262.75869772 245.02074781 257.01315308 245.04707909 C251.11962441 245.07717161 245.22622504 245.12360111 239.33279419 245.16853905 C227.82570116 245.25393261 216.31858104 245.32155771 204.81130981 245.37752342 C225.49769381 266.50427402 265.73871081 270.70788541 294.06912231 271.54549217 C301.31820148 271.58210368 308.47301932 271.38058527 315.68630981 270.62752342 C316.4238147 270.55066307 317.16131958 270.47380272 317.9211731 270.39461327 C322.00000421 269.90494178 325.86155683 269.14601218 329.81912231 268.03767967 C342.21181217 264.62312118 342.21181217 264.62312118 346.84255981 266.80721092 C349.42492355 269.16892966 351.57629874 271.68773619 353.81130981 274.37752342 C355.59014946 275.89700353 357.40396166 277.3764041 359.24880981 278.81502342 C364.02127184 282.67460945 368.5424009 286.74952333 373.05740356 290.90486717 C376.64338265 294.12461861 380.37832474 297.13657518 384.12771606 300.16267967 C387.61681897 303.04233229 390.94127902 306.08446218 394.28396606 309.13142967 C396.88093374 311.4393994 399.54534994 313.63308205 402.24880981 315.81502342 C407.02271281 319.67577479 411.54519409 323.75189418 416.06130981 327.90877342 C418.74868616 330.32130446 421.50096425 332.61008553 424.31130981 334.87752342 C429.067264 338.71471373 433.56635782 342.77137443 438.06130981 346.90877342 C440.74868616 349.32130446 443.50096425 351.61008553 446.31130981 353.87752342 C451.0687065 357.71587756 455.569149 361.77374701 460.06521606 365.91267967 C462.73006148 368.3045964 465.45962807 370.57007226 468.24880981 372.81502342 C472.37791744 376.18036548 476.48377271 379.56444458 480.49880981 383.06502342 C481.02853394 383.50451317 481.55825806 383.94400291 482.10403442 384.39681053 C484.75929653 386.75552351 485.76059631 388.02166199 486.26834106 391.58455467 C485.81130981 394.37752342 485.81130981 394.37752342 483.81130981 396.37752342 C480.55332663 397.51338984 477.40415144 397.52272362 473.97547913 397.55834007 C472.7826532 397.57272118 471.58982727 397.58710228 470.3608551 397.60191917 C468.40261559 397.61773537 468.40261559 397.61773537 466.40481567 397.63387108 C465.0132212 397.64832694 463.62162983 397.6630847 462.2300415 397.67812157 C449.52651732 397.80837354 436.8221242 397.87427847 424.11806393 397.92596436 C414.73647069 397.9648364 405.35608138 398.03313844 395.97501653 398.14051211 C389.36846907 398.21356115 382.76224927 398.25182986 376.15531451 398.26499021 C372.21459658 398.27382429 368.27536876 398.29781619 364.33509636 398.35965919 C360.62201879 398.4172749 356.91118538 398.43147831 353.1977272 398.41378593 C351.20172413 398.41507077 349.20590095 398.46084012 347.21046448 398.50841331 C337.42333003 398.39688921 332.68154753 395.10865421 325.81130981 388.37752342 C324.37834868 387.17771979 322.93532613 385.98964405 321.47537231 384.82283592 C314.36317415 378.97971927 307.28207279 373.105897 300.2727356 367.13973045 C296.37936257 363.83459131 292.40774346 360.6422306 288.40505981 357.47127342 C284.75729549 354.52669258 281.19677002 351.4830081 277.62771606 348.44392967 C274.3970667 345.69977809 271.13432927 343.01004533 267.81130981 340.37752342 C263.90989001 337.28678825 260.1003963 334.10373836 256.31130981 330.87752342 C251.82047827 327.05591129 247.27766875 323.32084024 242.65505981 319.65877342 C238.92477687 316.66634864 235.24568851 313.61365819 231.56130981 310.56502342 C225.78582739 305.79168817 219.96036656 301.09720415 214.05056763 296.49153709 C208.8986168 292.46887155 203.83316888 288.34430289 198.76980591 284.21101952 C194.50800344 280.73847779 190.21003988 277.3190173 185.87380981 273.94002342 C179.88401423 269.27249372 174.01874513 264.4637117 168.19827271 259.58675194 C164.06857889 256.15066416 159.84216563 252.86743606 155.53640747 249.65535545 C154.98390823 249.24213539 154.431409 248.82891533 153.86216736 248.40317345 C152.51244522 247.39386916 151.16195634 246.38559037 149.81130981 245.37752342 C149.87285879 256.9662708 149.95020372 268.55479923 150.04702473 280.14330864 C150.09151415 285.52588938 150.13081593 290.90839814 150.15774536 296.29109764 C150.18399407 301.49785861 150.2245443 306.70433934 150.27449608 311.91092491 C150.29102038 313.88491865 150.30262357 315.85896069 150.30892372 317.83301353 C150.37258547 335.96781225 150.76041982 355.7611399 164.02615356 369.80721092 C171.28756052 376.19470676 179.94435284 379.97540487 188.79275513 383.62532616 C189.91762329 384.09821068 189.91762329 384.09821068 191.06521606 384.58064842 C191.73883179 384.855541 192.41244751 385.13043358 193.10647583 385.41365623 C194.81130981 386.37752342 194.81130981 386.37752342 196.81130981 389.37752342 C196.93630981 392.06502342 196.93630981 392.06502342 196.81130981 394.37752342 C191.68527725 396.9009864 187.543997 397.81102427 181.80349731 397.75174522 C181.02658035 397.75571963 180.24966339 397.75969404 179.44920349 397.76378888 C176.86138272 397.77336752 174.27411473 397.76162089 171.68630981 397.74983788 C169.82473548 397.7522673 167.96316245 397.75598809 166.10159302 397.7609005 C161.05617397 397.77029239 156.01094949 397.7608983 150.96554565 397.74756837 C145.68106057 397.73623673 140.39658482 397.74036271 135.11209106 397.74231529 C126.23836089 397.74319772 117.36470718 397.73212847 108.49099731 397.71370506 C98.23731894 397.69253825 87.98375256 397.68902789 77.73005676 397.69526702 C67.85917688 397.70096532 57.98833637 397.69530951 48.11746216 397.68409348 C43.91986359 397.67945368 39.72228915 397.67857096 35.52468872 397.68067932 C30.580174 397.6825655 25.63577298 397.67443289 20.69128418 397.65861893 C18.87848379 397.65438312 17.06567185 397.65352079 15.25286865 397.65630913 C12.7748292 397.65954194 10.2971271 397.65042155 7.81912231 397.63821983 C7.10500687 397.64199916 6.39089142 397.64577848 5.65513611 397.64967233 C0.98879908 397.60914162 -2.79941122 396.81701176 -7.18869019 395.37752342 C-7.93869019 393.12752342 -7.93869019 393.12752342 -8.18869019 390.37752342 C-4.83482198 385.75051545 0.40751418 384.18631931 5.49880981 382.06502342 C12.67976217 378.94827728 19.17931565 375.95712694 24.81130981 370.37752342 C25.36560669 369.8490078 25.91990356 369.32049217 26.49099731 368.77596092 C38.10721003 356.58182718 38.96518695 338.92959548 38.95175171 323.04549217 C38.95472283 321.93498717 38.95769395 320.82448217 38.96075511 319.68032551 C38.96939671 315.97521707 38.97094651 312.27014112 38.97244263 308.56502342 C38.97707405 305.90165622 38.98207911 303.23829189 38.98748779 300.57492638 C39.00102466 293.34934337 39.00708867 286.12376595 39.01149845 278.89817238 C39.01426896 274.37874549 39.01850778 269.85932071 39.02300262 265.33989525 C39.03518961 252.80486753 39.04548979 240.26984148 39.04887772 227.73480797 C39.04909728 226.93374274 39.04931685 226.13267751 39.04954307 225.30733758 C39.04976135 224.50445249 39.04997962 223.7015674 39.05020452 222.87435246 C39.05064797 221.24764252 39.05109453 219.62093258 39.05154419 217.99422264 C39.05187633 216.78388908 39.05187633 216.78388908 39.05221519 215.54910433 C39.05615908 202.48905205 39.07360316 189.42905569 39.09690371 176.36902499 C39.12068212 162.93167831 39.13308252 149.49435962 39.13424563 136.05699158 C39.1351588 128.52407467 39.14082002 120.99123066 39.15906525 113.45833397 C39.17455419 107.04122091 39.17953537 100.62420328 39.17132714 94.20707506 C39.16745135 90.94009471 39.16986914 87.67334381 39.18238449 84.4063797 C39.55575993 53.59306272 39.55575993 53.59306272 26.13943481 26.69783592 C18.74269102 19.32591342 8.78720434 15.05503588 -0.84494019 11.35799217 C-6.90975567 8.94933919 -6.90975567 8.94933919 -8.43869019 5.81502342 C-8.18869019 3.37752342 -8.18869019 3.37752342 -6.99735832 1.74877489 C-4.56468916 -0.09556631 -3.03832922 0.00158045 0 0 Z M149.81130981 25.37752342 C149.81130981 87.74752342 149.81130981 150.11752342 149.81130981 214.37752342 C166.86818481 214.46002342 183.92505981 214.54252342 201.49880981 214.62752342 C206.86219604 214.66393944 212.22558228 214.70035545 217.75149536 214.73787498 C222.60650887 214.75126197 222.60650887 214.75126197 227.46153259 214.75929832 C229.60516187 214.7653955 231.74877839 214.77936905 233.89231873 214.79982567 C255.64154866 214.9968082 272.0429832 211.70248169 288.09255981 196.09236717 C289.43834106 194.74851952 289.43834106 194.74851952 290.81130981 193.37752342 C291.48162231 192.71881248 292.15193481 192.06010155 292.84255981 191.38142967 C313.92171261 169.10459774 317.71062965 137.18106567 316.99050903 108.04305077 C315.88280578 85.38493553 305.81630149 63.13985646 290.81130981 46.37752342 C290.27119263 45.74330467 289.73107544 45.10908592 289.17459106 44.45564842 C280.94888461 35.42187509 269.55022238 29.31662523 257.81130981 26.37752342 C257.13896805 26.20132973 256.46662628 26.02513603 255.77391052 25.84360313 C251.4435701 25.16234905 247.16544219 25.24736746 242.78860474 25.26399803 C241.76704694 25.2638775 240.74548914 25.26375696 239.69297504 25.26363277 C236.39255392 25.26437801 233.09218956 25.27198856 229.79177856 25.27986717 C227.75161771 25.2813378 225.71145648 25.28235777 223.67129517 25.28291893 C216.11379429 25.28815785 208.55630149 25.30211908 200.99880981 25.31502342 C175.66099731 25.34596092 175.66099731 25.34596092 149.81130981 25.37752342 Z " fill="#FFFFFF" transform="translate(511.1886901855469,0.6224765777587891)"/>
<path d="M0 0 C1.30387051 -0.00874829 1.30387051 -0.00874829 2.63408184 -0.01767331 C4.07535553 -0.01200433 4.07535553 -0.01200433 5.54574585 -0.00622082 C7.07050018 -0.01195914 7.07050018 -0.01195914 8.62605762 -0.01781338 C12.05555607 -0.02818751 15.48488845 -0.02414259 18.91439819 -0.02018261 C21.36508846 -0.02452726 23.81577736 -0.02970958 26.26646423 -0.03567028 C32.25203299 -0.04771437 38.23753579 -0.05020576 44.22311062 -0.04787002 C49.10032426 -0.04608671 53.97752431 -0.04783684 58.85473633 -0.05209446 C59.54912495 -0.05268965 60.24351356 -0.05328484 60.95894426 -0.05389806 C62.36991318 -0.0551099 63.7808821 -0.05632403 65.19185102 -0.05754044 C78.44789671 -0.06843425 91.70391702 -0.06624774 104.95996416 -0.06015559 C117.031476 -0.05501298 129.10290648 -0.06616784 141.17440224 -0.08525381 C153.59795506 -0.1047435 166.02146966 -0.11286709 178.44503784 -0.10913056 C185.4076911 -0.10723163 192.3702756 -0.10957434 199.33291626 -0.1238451 C205.90583786 -0.13718055 212.47862668 -0.1343496 219.05155754 -0.12143421 C221.44334915 -0.11909696 223.83515247 -0.1216984 226.22693062 -0.13005733 C285.68855258 -0.32259347 339.40329277 15.93645281 382.87533569 57.25447559 C383.82279663 58.12265919 383.82279663 58.12265919 384.78939819 59.00838184 C420.11667189 92.41023541 437.63600103 145.00469774 439.07846069 192.54353809 C439.70501096 235.10930107 429.45253481 279.50072412 403.87533569 314.25447559 C403.11736694 315.29603809 402.35939819 316.33760059 401.57846069 317.41072559 C372.1457244 357.13126584 329.55406435 382.06842634 281.18783569 391.56697559 C280.44275757 391.71433155 279.69767944 391.86168751 278.93002319 392.0135088 C261.80538092 395.09442831 244.61576953 395.5384351 227.26596069 395.44978809 C225.07494233 395.44604593 222.88392226 395.44320467 220.69290161 395.44121265 C214.99835375 395.43367078 209.30391214 395.41410655 203.60940552 395.3918047 C197.7696781 395.37113961 191.92993308 395.36216731 186.09017944 395.35213184 C174.6851855 395.33084922 163.28026952 395.29683134 151.87533569 395.25447559 C151.87533569 395.91447559 151.87533569 396.57447559 151.87533569 397.25447559 C132.14336115 397.30118789 112.41139782 397.33646067 92.67937946 397.35809994 C83.51754725 397.3684143 74.35574938 397.3824777 65.19393921 397.4053545 C57.20888836 397.42528347 49.22386238 397.43819087 41.23878735 397.44265258 C37.01041566 397.44526079 32.78211514 397.45139458 28.55376625 397.46593571 C24.57378216 397.47951181 20.59389855 397.48369817 16.61389351 397.48069096 C15.15339868 397.48124111 13.69290049 397.48521841 12.23242569 397.49288654 C10.23734723 397.50284764 8.24221485 397.49925051 6.24711609 397.49498463 C5.13082479 397.49682821 4.01453348 397.4986718 2.86441517 397.50057125 C-0.43649164 397.22880235 -3.69604489 396.68309501 -6.12466431 394.25447559 C-6.49966431 391.94197559 -6.49966431 391.94197559 -6.12466431 389.25447559 C-2.69721679 386.02091653 0.58010848 384.41080738 5.00033569 382.87947559 C18.99262093 377.71358093 29.25906998 371.4502994 36.07064819 357.87166309 C40.45674392 347.76739812 41.1754436 337.17242011 41.1360321 326.28247547 C41.13985765 325.1394112 41.1436832 323.99634693 41.14762467 322.81864434 C41.15787225 319.02140928 41.15397824 315.22432775 41.1499939 311.42708302 C41.15325436 308.69106076 41.15946565 305.95504682 41.16548157 303.21902943 C41.17818233 296.57812399 41.18002804 289.93725907 41.1776813 283.29634353 C41.17589273 277.89391266 41.17765931 272.49149401 41.18190575 267.0890646 C41.18250094 266.31792017 41.18309612 265.54677575 41.18370935 264.75226331 C41.1849212 263.18528769 41.18613533 261.61831207 41.18735173 260.05133644 C41.19820953 245.38063908 41.19607317 230.70996474 41.18996688 216.03926609 C41.18479975 202.64502407 41.19605093 189.25085482 41.2150651 175.85662719 C41.2344801 162.07340673 41.24269306 148.29022064 41.23894185 134.50698644 C41.23703529 126.78080048 41.23946386 119.05467644 41.25365639 111.3285017 C41.26561799 104.75073374 41.26692189 98.1730658 41.25486622 91.59529635 C41.24901066 88.24548225 41.24943768 84.89599912 41.25986862 81.54617405 C41.56425197 51.11327743 41.56425197 51.11327743 27.02377319 25.12166309 C19.33491325 18.43934482 10.60618455 14.42531609 1.08065796 11.15633106 C-3.94977712 9.42936278 -3.94977712 9.42936278 -6.12466431 7.25447559 C-6.37466431 4.75447559 -6.37466431 4.75447559 -6.12466431 2.25447559 C-3.73599133 -0.13419738 -3.24987211 0.00373745 0 0 Z M151.87533569 29.25447559 C151.87533569 139.80447559 151.87533569 250.35447559 151.87533569 364.25447559 C204.35494828 368.77478044 204.35494828 368.77478044 260.31283569 356.44197559 C261.30791138 355.92159718 261.30791138 355.92159718 262.3230896 355.39070606 C267.6440367 352.53540479 272.40330278 349.33067886 276.87533569 345.25447559 C277.69389038 344.52744434 278.51244507 343.80041309 279.35580444 343.05135059 C294.40793176 328.93286506 302.04272893 309.61713668 302.96817815 289.20688879 C303.00518155 287.16771056 303.01356286 285.13072602 303.00904846 283.09122181 C303.0124468 281.93681686 303.0124468 281.93681686 303.01591378 280.7590906 C303.02218965 278.20781323 303.02142858 275.65658986 303.02059937 273.10530567 C303.0235949 271.26464743 303.02699833 269.42398982 303.03077698 267.58333302 C303.03958185 262.60167649 303.04195363 257.62003717 303.04259276 252.63837361 C303.04330535 249.52002075 303.04544365 246.40167221 303.04808998 243.28332043 C303.05733236 232.38722807 303.06142633 221.49114791 303.06063843 210.59505177 C303.0600382 200.46644838 303.07058211 190.33789834 303.08638209 180.20930845 C303.09949425 171.49050645 303.10482077 162.7717218 303.10418302 154.05291003 C303.10392908 148.85580039 303.10672258 143.65873819 303.11736107 138.46163845 C303.12710389 133.56880122 303.12707919 128.67605617 303.11984444 123.78321552 C303.11880618 121.99753591 303.1211158 120.21185037 303.1272049 118.42618084 C303.21160099 91.94001167 297.66895134 69.80936838 278.87533569 50.25447559 C246.4416877 18.51545268 190.2235548 29.25447559 151.87533569 29.25447559 Z " fill="#FFFFFF" transform="translate(1584.1246643066406,0.7455244064331055)"/>
<path d="M0 0 C1.08891773 -0.00583219 2.17783545 -0.01166439 3.29975069 -0.01767331 C4.50593132 -0.01389399 5.71211196 -0.01011467 6.95484352 -0.00622082 C8.22876005 -0.01004636 9.50267658 -0.01387191 10.81519663 -0.01781338 C14.36359205 -0.02814743 17.91188705 -0.02589778 21.46029091 -0.02163279 C25.28345279 -0.01917489 29.10658989 -0.02816876 32.92974281 -0.03567028 C40.42928556 -0.04845168 47.92879255 -0.05020619 55.42834435 -0.04787002 C61.53177197 -0.04608825 67.63518872 -0.0478335 73.73861504 -0.05209446 C75.04090506 -0.05298724 75.04090506 -0.05298724 76.36950398 -0.05389806 C78.13336129 -0.05510984 79.8972186 -0.05632397 81.6610759 -0.05754044 C98.22752943 -0.06843205 114.79396264 -0.06624756 131.36041732 -0.06015559 C146.48170987 -0.05500156 161.6029377 -0.06619882 176.72421746 -0.08525381 C192.26431399 -0.1046854 207.80438 -0.11287786 223.34448874 -0.10913056 C232.06305161 -0.10722443 240.78155961 -0.10964708 249.50011253 -0.1238451 C256.93436471 -0.13582882 264.36852838 -0.13708729 271.80278192 -0.12505493 C275.58852915 -0.11921091 279.37411508 -0.11794007 283.15985107 -0.13005733 C323.8972416 -0.25119946 357.81305467 7.22158018 387.89029884 36.25447559 C389.09686134 37.366292 389.09686134 37.366292 390.32779884 38.50056934 C412.26140652 59.25372244 422.15722272 89.42605084 424.13248634 118.86385059 C424.88456198 152.45656253 411.7230419 183.03912699 388.89029884 207.25447559 C388.22772072 207.99310841 387.56514259 208.73174122 386.88248634 209.49275684 C366.88540427 230.89647777 336.61034556 242.27806695 307.89029884 244.25447559 C302.70749173 244.39099654 297.52696694 244.38134073 292.34293556 244.36800098 C290.7946822 244.36771842 289.24642871 244.3678782 287.69817543 244.36844349 C283.52326899 244.36872875 279.34839167 244.36287597 275.17349195 244.35586953 C270.79997184 244.34959075 266.42645095 244.34902863 262.05292702 244.34784412 C253.78362529 244.3447441 245.51433689 244.33654871 237.24504101 244.32649463 C227.82540129 244.31529212 218.40576091 244.30981264 208.98611617 244.3047992 C189.62083619 244.29436492 170.25556859 244.27679134 150.89029884 244.25447559 C150.92852942 256.62555138 150.98814147 268.9963286 151.07420158 281.36716938 C151.11351975 287.11298139 151.14578455 292.85864373 151.16129494 298.60457325 C151.17656526 304.16150938 151.21119247 309.71803357 151.25860786 315.27478504 C151.27331544 317.38275009 151.28133367 319.49077398 151.28218269 321.59879017 C151.29720446 340.21377897 152.29879657 357.97547332 166.20279884 371.87947559 C172.33388357 377.13602016 179.45450355 380.14325481 186.79752541 383.319417 C190.22103272 384.84905221 193.54897172 386.55377763 196.89029884 388.25447559 C197.01529884 391.12947559 197.01529884 391.12947559 196.89029884 394.25447559 C193.36974739 397.77502705 189.06672098 397.36986779 184.26913786 397.3928811 C183.54394154 397.39133249 182.81874522 397.38978389 182.07157326 397.38818836 C181.29087046 397.39045392 180.51016767 397.39271948 179.70580721 397.39505368 C177.09346119 397.4013768 174.48116728 397.40056541 171.86881447 397.39973927 C169.9944394 397.40273175 168.12006494 397.40613448 166.2456913 397.40991688 C161.15696768 397.4187505 156.06826088 397.42109468 150.97953033 397.42173266 C146.73232295 397.42268229 142.48511948 397.42636109 138.23791361 397.42990476 C128.21985901 397.43804636 118.2018134 397.44048921 108.18375587 397.43977833 C97.84488361 397.43917712 87.50606345 397.44973819 77.16720438 397.46552199 C68.29236178 397.47858861 59.41753623 397.48396262 50.54268408 397.48332292 C45.24128544 397.48306774 39.93993315 397.48593023 34.63854408 397.49650097 C29.6546822 397.50616753 24.6709111 397.50627105 19.68704605 397.49898434 C17.85727557 397.4979368 16.02749948 397.50031135 14.19773865 397.5063448 C11.70139319 397.51404367 9.20536293 397.50943397 6.70902443 397.50171375 C5.98382811 397.50685732 5.25863179 397.51200088 4.51145983 397.51730031 C0.35106387 397.48883735 -3.99583722 397.36833953 -7.10970116 394.25447559 C-7.15050899 392.25489196 -7.15224472 390.25402305 -7.10970116 388.25447559 C-2.25189228 385.72841498 2.62211498 383.55016349 7.70279884 381.50447559 C19.72861201 376.35423441 29.02148173 369.51834042 34.16764259 357.19588184 C37.43133814 347.89260734 38.03856428 339.42657057 38.03074074 329.64923573 C38.03371186 328.4852367 38.03668298 327.32123767 38.03974414 326.12196594 C38.04689946 322.90395128 38.04960151 319.68596924 38.05034161 316.46794784 C38.05219906 312.99196364 38.05974989 309.51599086 38.06647682 306.04001331 C38.08003317 298.44469031 38.08608077 290.84937261 38.09048748 283.25403953 C38.09325472 278.50649864 38.09749297 273.75895977 38.10199165 269.01142025 C38.11418126 255.85282075 38.12448088 242.69422286 38.12786674 229.53561783 C38.12808631 228.69414873 38.12830588 227.85267962 38.1285321 226.98571146 C38.12875037 226.14228947 38.12896865 225.29886747 38.12919354 224.42988724 C38.129637 222.72094468 38.13008357 221.01200213 38.13053322 219.30305958 C38.13086536 218.03153213 38.13086536 218.03153213 38.13120422 216.73431725 C38.13514937 203.00929343 38.15259612 189.28432278 38.17589274 175.55931949 C38.19964779 161.44969333 38.2120705 147.34009382 38.21323466 133.23044735 C38.21414914 125.31585991 38.2198439 117.40134176 38.23805428 109.48677349 C38.2535115 102.74527095 38.25854279 96.00385912 38.25031617 89.26234221 C38.24642932 85.82766384 38.24724199 82.39316783 38.26137352 78.95851231 C38.69700588 50.49229079 38.69700588 50.49229079 25.39029884 26.06697559 C17.19066671 18.4452223 6.76198401 13.87347092 -3.66048241 10.16463184 C-6.10970116 9.25447559 -6.10970116 9.25447559 -7.10970116 8.25447559 C-7.29720116 5.31697559 -7.29720116 5.31697559 -7.10970116 2.25447559 C-4.53823005 -0.31699551 -3.57373164 0.00327689 0 0 Z M150.89029884 25.25447559 C150.89029884 87.62447559 150.89029884 149.99447559 150.89029884 214.25447559 C168.44217384 214.33697559 185.99404884 214.41947559 204.07779884 214.50447559 C212.35780983 214.55909962 212.35780983 214.55909962 220.80509377 214.61482716 C225.79981689 214.62821375 225.79981689 214.62821375 230.79454994 214.6362505 C233.00067825 214.64234957 235.20679413 214.65632717 237.41283607 214.67677784 C259.2934915 214.86928849 275.85755491 211.94851172 292.10514259 196.10213184 C312.44988993 175.30084038 320.45835203 148.20146008 321.07779884 119.62947559 C320.75673631 92.05377109 312.43202038 64.73542113 293.18326759 44.49275684 C279.83179534 31.45971834 264.7826343 24.88776082 246.13810158 25.02742481 C245.08632508 25.02718374 244.03454859 25.02694267 242.95090008 25.0266943 C239.57514228 25.0281769 236.19961044 25.04336118 232.82389259 25.05916309 C230.72823124 25.06210679 228.63256841 25.06414522 226.53690529 25.06526661 C218.80051392 25.07571604 211.06415412 25.10363858 203.32779884 25.12947559 C177.37123634 25.19135059 177.37123634 25.19135059 150.89029884 25.25447559 Z " fill="#FFFFFF" transform="translate(7.109701156616211,0.7455244064331055)"/>
<path d="M0 0 C0.65422084 -0.01864243 1.30844167 -0.03728486 1.98248738 -0.05649221 C4.17912739 -0.11607454 6.37580984 -0.16120148 8.57279968 -0.2059021 C10.14657848 -0.24462378 11.7203444 -0.28387208 13.2940979 -0.3236084 C27.68386247 -0.67083287 42.07781373 -0.85768277 56.47085285 -1.00574684 C67.10267992 -1.11740822 77.72719966 -1.30652803 88.35567123 -1.59706271 C95.83852669 -1.79467839 103.3193864 -1.89932641 110.80473107 -1.93745649 C115.27161354 -1.96291562 119.72904064 -2.02886762 124.19303322 -2.19664383 C151.26266108 -3.17168017 151.26266108 -3.17168017 158.43197632 2.75820923 C163.12635928 8.45459249 166.02075557 14.70491747 168.53147411 21.60314751 C169.89454731 25.23023072 171.67430307 28.35236875 173.66923523 31.66763306 C174.76785924 33.66117552 175.86426041 35.65594478 176.95829773 37.65200806 C182.1110352 46.98883637 187.33955099 56.27698115 192.64579773 65.52700806 C197.75674384 74.43774828 202.8260063 83.36999157 207.83329773 92.33950806 C214.0110039 103.40239403 220.27994605 114.41035185 226.58329773 125.40200806 C229.21007693 129.98432462 231.83523303 134.56756456 234.45829773 139.15200806 C234.79776428 139.74514801 235.13723083 140.33828796 235.48698425 140.94940186 C240.27731758 149.32282381 245.01247603 157.72510522 249.70829773 166.15200806 C254.22100295 174.24925084 258.82480047 182.28473133 263.52079773 190.27700806 C269.20454325 199.95294619 274.69120033 209.72756745 280.1204071 219.54824829 C285.31225788 228.93522772 290.60769304 238.25832975 295.95097351 247.5597229 C299.12550596 253.08737872 302.29316429 258.61896662 305.45829773 264.15200806 C305.79719025 264.74433228 306.13608276 265.33665649 306.48524475 265.94692993 C311.90465344 275.42304081 317.25689014 284.93527819 322.57939148 294.46621704 C327.1262152 302.60246809 331.73073584 310.70400412 336.36845398 318.78872681 C338.44875301 322.41552476 340.5200246 326.04730269 342.58409119 329.68336487 C344.00303608 332.18264746 345.42413964 334.68069994 346.84532166 337.17871094 C347.53260785 338.38798083 348.21896564 339.59777896 348.90428162 340.8081665 C359.47901433 360.56040399 359.47901433 360.56040399 375.70829773 375.40200806 C376.38408875 375.82498169 377.05987976 376.24795532 377.75614929 376.68374634 C384.13513945 380.48378133 390.84826299 382.90814949 397.93144226 385.06997681 C405.82530443 387.52549525 405.82530443 387.52549525 408.58329773 391.40200806 C408.33329773 394.15200806 408.33329773 394.15200806 407.58329773 396.40200806 C402.89281987 398.24211853 398.70151986 398.68707909 393.72024536 398.65597534 C392.94685525 398.65909532 392.17346513 398.6622153 391.37663895 398.66542983 C388.7949748 398.67338298 386.21354746 398.66709673 383.63188171 398.66079712 C381.77706261 398.66350815 379.92224458 398.66706971 378.06742859 398.67141724 C373.03658999 398.68052951 368.00583349 398.67700192 362.97499347 398.67065907 C357.70958406 398.66559384 352.44418166 398.67029191 347.17877197 398.6734314 C338.33777098 398.67706919 329.49680341 398.67227649 320.6558075 398.66275024 C310.43335653 398.6518627 300.21098533 398.65539421 289.9885363 398.66640306 C281.21133282 398.67547722 272.43415337 398.67676067 263.65694672 398.67152572 C258.41481313 398.66840717 253.17271704 398.66799361 247.93058586 398.67459869 C243.00333545 398.6803735 238.07618796 398.67637274 233.14894867 398.66481018 C231.34014367 398.66216447 229.53133002 398.66292717 227.72252846 398.66733551 C225.25469062 398.67279579 222.78718321 398.66595104 220.31936646 398.65597534 C219.60263415 398.66043679 218.88590185 398.66489823 218.14745039 398.66949487 C214.00769711 398.63700869 209.67997984 398.49869017 206.58329773 395.40200806 C206.12015973 391.00219709 206.12015973 391.00219709 207.73173523 388.91372681 C210.12682318 386.9582436 212.64343524 385.86356676 215.45829773 384.58950806 C221.57894155 381.60310697 224.58363789 379.10137876 227.83329773 373.08950806 C231.61245915 359.54751298 225.74541326 348.01206451 219.95829773 335.77700806 C219.42905701 334.64529175 218.89981628 333.51357544 218.35453796 332.3475647 C214.15008387 323.43195132 209.65949078 314.70012941 204.98710632 306.02310181 C202.10806374 300.64755377 199.2838804 295.24328629 196.45829773 289.83950806 C195.5863678 288.18616455 195.5863678 288.18616455 194.69682312 286.49942017 C194.16178162 285.47598511 193.62674011 284.45255005 193.07548523 283.39810181 C192.59450378 282.48214233 192.11352234 281.56618286 191.6179657 280.62246704 C190.58329773 278.40200806 190.58329773 278.40200806 190.58329773 276.40200806 C135.14329773 276.40200806 79.70329773 276.40200806 22.58329773 276.40200806 C21.59329773 279.70200806 20.60329773 283.00200806 19.58329773 286.40200806 C18.77831209 288.39305397 17.9262357 290.3663288 17.00907898 292.30825806 C16.51399841 293.36545044 16.01891785 294.42264282 15.50883484 295.51187134 C14.97653259 296.63061646 14.44423035 297.74936157 13.89579773 298.90200806 C13.3370697 300.09165161 12.77834167 301.28129517 12.2026825 302.50698853 C10.66904309 305.77225914 9.12688697 309.03343127 7.5821991 312.29348755 C4.74160123 318.28953386 1.90917839 324.2894408 -0.92198181 330.28994751 C-1.9565659 332.47910988 -2.9953003 334.66626371 -4.03462219 336.85317993 C-13.27097707 354.28326279 -13.27097707 354.28326279 -12.59638977 373.12857056 C-9.24897843 379.57954208 -5.01620892 382.61315943 1.33329773 385.71450806 C8.5397263 389.35843663 8.5397263 389.35843663 9.58329773 390.40200806 C9.77079773 392.83950806 9.77079773 392.83950806 9.58329773 395.40200806 C6.03104021 398.95426558 2.12416758 398.52197299 -2.74963379 398.54864502 C-4.01835075 398.54796524 -4.01835075 398.54796524 -5.31269836 398.54727173 C-6.21072678 398.55063034 -7.10875519 398.55398895 -8.03399658 398.55744934 C-11.00272505 398.56694831 -13.97139705 398.56890193 -16.94013977 398.56997681 C-19.00513228 398.57319011 -21.07012455 398.57655424 -23.13511658 398.58006287 C-27.46433541 398.58605149 -31.79353428 398.58790304 -36.12275696 398.58731079 C-41.66658407 398.58720918 -47.21028307 398.60086123 -52.75407982 398.618083 C-57.01948127 398.62920855 -61.28485179 398.63122983 -65.55026627 398.63070107 C-67.59396939 398.63188035 -69.63767333 398.63629922 -71.68136215 398.64403343 C-74.54163809 398.65384441 -77.40163659 398.65095083 -80.26191711 398.64492798 C-81.10367996 398.65054749 -81.94544281 398.65616699 -82.81271362 398.66195679 C-87.41123403 398.63738501 -91.08723633 398.15820227 -95.41670227 396.40200806 C-96.16670227 394.15200806 -96.16670227 394.15200806 -96.41670227 391.40200806 C-93.13220785 386.85981467 -88.44280342 385.72897391 -83.35420227 384.02700806 C-64.45925173 377.32320998 -51.24195293 367.75505833 -41.99726868 349.61709595 C-40.57730302 346.60337082 -39.20986351 343.57019348 -37.85420227 340.52700806 C-36.73349789 338.06268267 -35.6096603 335.60012635 -34.47920227 333.14028931 C-34.17199753 332.47154282 -33.86479279 331.80279633 -33.54827881 331.11378479 C-28.98381771 321.23427812 -24.150181 311.48299597 -19.35420227 301.71450806 C-17.43338646 297.7992626 -15.51291421 293.88384867 -13.59248352 289.96841431 C-13.13416641 289.03426697 -12.6758493 288.10011963 -12.2036438 287.13766479 C-8.78176271 280.15876629 -5.39347267 273.16489737 -2.04170227 266.15200806 C2.38679171 256.88737297 6.85068975 247.64054727 11.33329773 238.40200806 C11.67026672 237.70744507 12.00723572 237.01288208 12.35441589 236.29727173 C14.07263048 232.7558508 15.79121557 229.21460986 17.51005554 225.67349243 C20.91091898 218.66703398 24.30992614 211.65967542 27.70829773 204.65200806 C28.04149017 203.96499817 28.37468262 203.27798828 28.7179718 202.57015991 C33.32952871 193.06087609 37.92965247 183.54616678 42.52079773 174.02700806 C46.96850072 164.80525872 51.42998665 155.59037319 55.90629578 146.38247681 C57.34886651 143.41483808 58.78902957 140.44605048 60.22709656 137.47622681 C63.38073099 130.96709862 66.54284561 124.46352187 69.77220154 117.99154663 C71.11023918 115.30720749 72.43828407 112.61799046 73.7651825 109.9281311 C74.38790648 108.67284981 75.01558549 107.42001298 75.64848328 106.16983032 C76.51678391 104.45397504 77.36691739 102.72896236 78.21611023 101.00357056 C78.6996698 100.03757935 79.18322937 99.07158813 79.68144226 98.07632446 C81.04225931 94.04102669 80.18698873 91.67521774 78.40336609 87.91348267 C77.91489197 87.05246948 77.42641785 86.1914563 76.92314148 85.30435181 C76.38068787 84.34359741 75.83823425 83.38284302 75.27934265 82.39297485 C74.40886292 80.88150879 74.40886292 80.88150879 73.52079773 79.33950806 C72.92952087 78.30543823 72.33824402 77.27136841 71.72904968 76.20596313 C56.10896944 49.09230465 35.79369095 21.62648305 4.47685242 12.94888306 C-7.25934186 9.55936846 -7.25934186 9.55936846 -9.41670227 7.40200806 C-9.66670227 4.96450806 -9.66670227 4.96450806 -9.41670227 2.40200806 C-5.86490073 0.03414037 -4.2223324 0.10550682 0 0 Z M97.58329773 122.40200806 C90.48449827 135.33683976 84.13678117 148.57630258 77.89848328 161.93911743 C73.1540259 172.09675836 68.31123253 182.20108876 63.39579773 192.27700806 C57.30236156 204.77765615 51.36831166 217.34197636 45.54814148 229.97232056 C42.24938925 237.12613633 38.91468105 244.2633295 35.58329773 251.40200806 C81.12329773 251.40200806 126.66329773 251.40200806 173.58329773 251.40200806 C171.98016119 246.59259845 170.62015241 243.52594426 168.02079773 239.33950806 C167.20523884 238.00855171 166.39161317 236.67640981 165.57939148 235.34341431 C165.11258972 234.57787231 164.64578796 233.81233032 164.1648407 233.02359009 C160.91707713 227.64006351 157.75739636 222.20416784 154.58329773 216.77700806 C153.84793793 215.52094309 153.11250424 214.2649214 152.3769989 213.00894165 C150.86922556 210.4339614 149.3618363 207.85875693 147.8547821 205.28335571 C144.18315225 199.00911877 140.50885873 192.73644277 136.83329773 186.46450806 C136.47828186 185.85869904 136.12326599 185.25289001 135.75749207 184.62872314 C130.10201685 174.97946788 124.42573456 165.34268338 118.72782898 155.71841431 C116.4899438 151.93813592 114.25936446 148.15364217 112.03251648 144.36685181 C111.15128113 142.87012939 111.15128113 142.87012939 110.25224304 141.34317017 C109.13175631 139.43982786 108.01253131 137.53574197 106.89482117 135.63076782 C102.9288393 128.89472856 102.9288393 128.89472856 98.58329773 122.40200806 C98.25329773 122.40200806 97.92329773 122.40200806 97.58329773 122.40200806 Z " fill="#FFFFFF" transform="translate(1134.4167022705078,-0.402008056640625)"/>
<path d="M0 0 C1.19280012 0.00184359 2.38560024 0.00368717 3.61454582 0.00558662 C4.27779015 0.00387777 4.94103449 0.00216892 5.62437713 0.00040829 C7.85703802 -0.00289806 10.08940142 0.00813563 12.32203484 0.01904488 C13.91836859 0.01960874 15.51470285 0.01929291 17.1110363 0.01815987 C21.4537997 0.0175844 25.79645334 0.02937002 30.13919115 0.04330778 C34.67424436 0.05578288 39.20929988 0.05698309 43.7443676 0.0593586 C52.33623901 0.06558286 60.92805973 0.08200644 69.51990879 0.10205758 C79.29968943 0.12438718 89.07947246 0.1354026 98.85927224 0.14544845 C118.98083993 0.16637187 139.10236193 0.20156619 159.2238903 0.24609566 C159.64162712 1.00116402 160.05936394 1.75623238 160.48975945 2.53418159 C162.07477553 5.39757757 163.66102819 8.2602817 165.24806023 11.1225605 C165.92822647 12.34983436 166.60793135 13.57736405 167.28712273 14.80517769 C171.82896694 23.01478802 176.46178416 31.16142729 181.2238903 39.24609566 C186.88466745 48.88217599 192.35428957 58.61226312 197.76124382 68.39282417 C202.95306128 77.77961396 208.24837611 87.10257488 213.59156609 96.4038105 C216.76609854 101.93146632 219.93375686 107.46305422 223.0988903 112.99609566 C223.43778282 113.58841988 223.77667534 114.18074409 224.12583733 114.79101753 C229.54524602 124.26712841 234.89748272 133.77936579 240.21998405 143.31030464 C245.81870194 153.3288532 251.51456874 163.29029706 257.2238903 173.24609566 C259.85066945 177.82841212 262.47597542 182.41156649 265.0988903 186.99609566 C265.43769218 187.5882386 265.77649406 188.18038155 266.12556267 188.79046822 C271.54505513 198.26676609 276.89738338 207.77918791 282.21998405 217.31030464 C287.81870194 227.3288532 293.51456874 237.29029706 299.2238903 247.24609566 C301.85066945 251.82841212 304.47597542 256.41156649 307.0988903 260.99609566 C307.43769218 261.5882386 307.77649406 262.18038155 308.12556267 262.79046822 C313.54505513 272.26676609 318.89738338 281.77918791 324.21998405 291.31030464 C328.76680778 299.44655569 333.37132841 307.54809172 338.00904655 315.63281441 C340.08934558 319.25961237 342.16061718 322.8913903 344.22468376 326.52745247 C345.64362866 329.02673506 347.06473222 331.52478754 348.48591423 334.02279854 C349.17320042 335.23206843 349.85955822 336.44186656 350.54487419 337.6522541 C363.657703 360.80666153 375.63633351 375.77157655 401.2539196 384.64673042 C402.54616447 385.09617012 402.54616447 385.09617012 403.8645153 385.55468941 C405.01742058 385.93838692 405.01742058 385.93838692 406.19361687 386.32983589 C408.44913612 387.3477488 409.70650755 388.29496145 411.2238903 390.24609566 C411.4113903 393.43359566 411.4113903 393.43359566 411.2238903 396.24609566 C406.97132571 398.32150986 403.13009344 398.52895969 398.48782158 398.50006294 C397.71599145 398.50318292 396.94416133 398.50630291 396.14894241 398.50951743 C393.56650652 398.51748523 390.9843064 398.51117853 388.40186882 398.50488472 C386.54881973 398.50759514 384.69577172 398.51115637 382.84272575 398.51550484 C377.81176083 398.5246256 372.78087791 398.52108568 367.74991155 398.51474667 C362.48496418 398.50968432 357.22002386 398.51437885 351.95507622 398.517519 C343.11229504 398.52115827 334.26954727 398.51636088 325.42677116 398.50683784 C315.20492899 398.49595674 304.98316661 398.49947654 294.76132637 398.51049066 C285.98497668 398.51956863 277.208651 398.5208462 268.43229812 398.51561332 C263.1906767 398.512496 257.94909277 398.51207769 252.70747375 398.51868629 C247.77859197 398.5244664 242.84981299 398.52045061 237.92094231 398.50889778 C236.11255819 398.50625462 234.30416542 398.50701042 232.49578476 398.51142311 C230.02605418 398.51689363 227.55665235 398.51002615 225.08694267 398.50006294 C224.37244109 398.50452439 223.65793951 398.50898583 222.92178637 398.51358247 C218.69568856 398.48054833 213.40873092 398.43093627 210.2238903 395.24609566 C209.8488903 392.93359566 209.8488903 392.93359566 210.2238903 390.24609566 C213.59526757 387.11990946 217.04485434 385.2832455 221.2238903 383.43359566 C228.09927153 380.07192277 230.72492688 376.85723483 233.5988903 369.93359566 C235.05294599 361.35466711 232.93279915 354.51577696 229.0363903 346.93359566 C228.05054949 344.94409345 227.06489072 342.95450103 226.07935905 340.96484566 C225.49460808 339.79824409 224.9098571 338.63164253 224.3073864 337.42968941 C221.76061795 332.33395499 219.26956141 327.21112342 216.77467155 322.08984566 C215.79252429 320.07461271 214.81034624 318.05939476 213.82813835 316.04419136 C213.08991341 314.52953789 213.08991341 314.52953789 212.33677483 312.98428535 C209.94158457 308.07329789 207.54072208 303.1650974 205.1379528 298.25781441 C204.50709518 296.96810738 204.50709518 296.96810738 203.86349297 295.65234566 C203.45858131 294.82565376 203.05366966 293.99896187 202.63648796 293.1472187 C202.24471367 292.34657997 201.85293938 291.54594124 201.44929314 290.72104073 C200.57991019 288.96514873 199.69766745 287.21559761 198.80659294 285.47061348 C198.34794853 284.5712809 197.88930412 283.67194832 197.4167614 282.74536324 C196.99704063 281.93078148 196.57731987 281.11619972 196.14488029 280.27693367 C195.2238903 278.24609566 195.2238903 278.24609566 195.2238903 276.24609566 C112.5588903 276.74109566 112.5588903 276.74109566 28.2238903 277.24609566 C16.18980886 303.03102199 16.18980886 303.03102199 4.2160778 328.84375191 C2.34474664 332.8723287 0.43927684 336.87982989 -1.5182972 340.86718941 C-1.93490608 341.72159615 -2.35151497 342.57600288 -2.78074837 343.45630074 C-3.53125791 344.98845551 -4.2908003 346.51624487 -5.06248665 348.0378437 C-8.81509937 355.71691077 -10.77509108 363.52094687 -8.6432972 371.92968941 C-6.14777357 378.59566016 -1.83209456 381.4158758 4.4113903 384.49609566 C5.43619499 384.95500191 6.46099968 385.41390816 7.51685905 385.88672066 C10.00151961 387.13442899 11.54323337 388.05666842 13.2238903 390.24609566 C13.4113903 392.93359566 13.4113903 392.93359566 13.2238903 395.24609566 C8.01940894 398.41043995 3.98239791 398.67206257 -1.91502571 398.61841011 C-3.26491585 398.62388611 -3.26491585 398.62388611 -4.64207649 398.62947273 C-7.60491732 398.63755236 -10.56720683 398.62399058 -13.53001595 398.60937691 C-15.59454536 398.60885804 -17.65907527 398.60937678 -19.7236042 398.61088753 C-24.04513638 398.61079792 -28.36648155 398.60039148 -32.68797493 398.5822773 C-38.22514396 398.55957647 -43.7620402 398.55904992 -49.29924297 398.56579494 C-53.56032927 398.56913727 -57.82135346 398.56250006 -62.08242798 398.55266571 C-64.12415873 398.54881906 -66.1658964 398.54766328 -68.20763016 398.54925156 C-71.06075 398.54962269 -73.91352084 398.53698883 -76.76658821 398.52075386 C-78.02991226 398.52446999 -78.02991226 398.52446999 -79.31875801 398.52826118 C-83.52782421 398.49006506 -87.01420859 398.37459448 -90.7761097 396.24609566 C-91.7761097 393.87109566 -91.7761097 393.87109566 -91.7761097 391.24609566 C-89.72137938 387.76074118 -87.90337364 386.59618778 -84.09251595 385.38672066 C-82.70951302 384.92676704 -82.70951302 384.92676704 -81.29857063 384.45752144 C-80.32178352 384.14025093 -79.34499641 383.82298042 -78.3386097 383.49609566 C-58.92168973 376.78403516 -45.20896172 365.27768407 -35.95848274 346.6706562 C-34.35441038 343.35222984 -32.80453901 340.0094869 -31.26820564 336.65924263 C-29.5403635 332.89188876 -27.78701472 329.13638635 -26.03782845 325.37890816 C-25.68222343 324.61315468 -25.32661842 323.8474012 -24.9602375 323.05844307 C-21.42292598 315.45356777 -17.76352708 307.91016161 -14.0886097 300.37109566 C-9.4656374 290.87459804 -4.93947953 281.34243892 -0.5261097 271.74609566 C5.12183248 259.47150653 11.02916629 247.33209478 16.97181511 235.19799995 C21.99899448 224.92843745 26.95392204 214.63819854 31.7238903 204.24609566 C36.9364634 192.89406288 42.36383378 181.65593648 47.8488903 170.43359566 C48.26329369 169.58560402 48.67769707 168.73761238 49.10465813 167.86392403 C50.72638233 164.54580898 52.34830993 161.22779349 53.97060966 157.90995979 C57.81713958 150.03984633 61.62676479 142.15308532 65.3723278 134.23437691 C67.34084968 130.07526983 69.34957547 125.93748432 71.37450981 121.80568123 C72.8963642 118.69215101 74.40313216 115.57144443 75.90788078 112.44961739 C76.65496644 110.90811052 77.40828769 109.36960881 78.16807365 107.83432198 C79.23064826 105.68492783 80.27041523 103.52581935 81.30592155 101.36328316 C81.63125877 100.71848503 81.95659599 100.0736869 82.29179192 99.40934944 C83.65877952 96.50215559 84.35771175 94.79074843 83.57862663 91.61987495 C83.13156364 90.83652779 82.68450066 90.05318062 82.2238903 89.24609566 C81.79704948 88.42488228 81.37020866 87.6036689 80.93043327 86.75757027 C80.44719597 85.89655708 79.96395866 85.0355439 79.4660778 84.14843941 C78.92708855 83.18800728 78.38809929 82.22757515 77.83277702 81.23803902 C60.99226822 51.57152175 41.50383781 21.73898858 6.8488903 12.12109566 C5.06857404 11.62444091 3.28983017 11.12210411 1.5129528 10.61328316 C0.73645378 10.39784859 -0.04004524 10.18241402 -0.84007454 9.96045113 C-2.7761097 9.24609566 -2.7761097 9.24609566 -4.7761097 7.24609566 C-5.0261097 4.74609566 -5.0261097 4.74609566 -4.7761097 2.24609566 C-2.7761097 0.24609566 -2.7761097 0.24609566 0 0 Z M102.2238903 122.24609566 C96.42284511 133.79459213 90.69949287 145.37935036 85.0363903 156.99609566 C84.62148338 157.84669563 84.20657646 158.69729561 83.7790966 159.57367134 C78.1119735 171.20075709 72.55855658 182.8684772 67.16895866 194.62719917 C64.04142076 201.42003042 60.82260744 208.15964098 57.53248405 214.87500191 C57.12495399 215.70751472 56.71742393 216.54002754 56.29754448 217.39776802 C54.28208413 221.51114717 52.25901662 225.62056884 50.22559929 229.72509956 C49.4826958 231.23593257 48.73993221 232.74683437 47.9973278 234.25781441 C47.66039406 234.93171715 47.32346031 235.60561989 46.97631645 236.29994392 C44.54776625 241.25929706 43.0080032 245.89375697 41.2238903 251.24609566 C86.7638903 251.24609566 132.3038903 251.24609566 179.2238903 251.24609566 C176.5838903 246.62609566 173.9438903 242.00609566 171.2238903 237.24609566 C169.82466615 234.74799188 168.42813821 232.24837231 167.0363903 229.74609566 C162.44667668 221.54916664 157.65676388 213.47414528 152.8645153 205.39453316 C149.23879205 199.27935887 145.6397963 193.14868656 142.04649162 187.01443672 C140.96978321 185.1765852 139.89243134 183.33911215 138.81495476 181.50171089 C135.49907789 175.84577859 132.18760215 170.1873779 128.89018059 164.52066231 C122.13376635 152.9103963 115.37797925 141.30541821 108.2238903 129.93359566 C107.47595207 128.74129341 107.47595207 128.74129341 106.71290398 127.52490425 C105.58000725 125.74576771 104.4068869 123.99232041 103.2238903 122.24609566 C102.8938903 122.24609566 102.5638903 122.24609566 102.2238903 122.24609566 Z " fill="#FFFFFF" transform="translate(2148.7761096954346,-0.2460956573486328)"/>
</svg>
