<?xml version="1.0" encoding="UTF-8"?>
<svg version="1.1" xmlns="http://www.w3.org/2000/svg" width="2560" height="567">
<path d="M0 0 C206.62220935 0 206.62220935 0 226.4375 4.125 C227.46842773 4.33817871 228.49935547 4.55135742 229.56152344 4.77099609 C260.05160299 11.41889412 286.60330233 25.42309361 309 47 C309.70511719 47.64195313 310.41023438 48.28390625 311.13671875 48.9453125 C338.44027276 74.53201018 350.93193442 114.13623748 352.18359375 150.58984375 C353.01224642 189.39077638 339.42142857 227.06761361 312.62841797 255.39477539 C297.98499183 270.37945784 276.49486845 288.32942543 255 291 C260.94188502 304.17515727 267.04819819 317.25630674 273.375 330.25 C278.1414974 340.03926457 282.8229515 349.85845995 287.375 359.75 C292.63091877 371.16425345 298.08911846 382.46948974 303.60397339 393.76019287 C308.31967912 403.41959176 312.94805313 413.10788276 317.4375 422.875 C322.84531673 434.63768766 328.48787047 446.2752799 334.17599487 457.90423584 C339.58696991 468.97203041 344.86952523 480.08372797 350.00537109 491.2824707 C353.1517609 498.11022583 356.38779064 504.88577749 359.6953125 511.63671875 C360.10259583 512.4687381 360.50987915 513.30075745 360.92950439 514.1579895 C362.94382361 518.26910376 364.96575491 522.37625747 366.99804688 526.47851562 C367.74103159 527.98951147 368.48387655 529.50057604 369.2265625 531.01171875 C369.56350128 531.68563156 369.90044006 532.35954437 370.24758911 533.05387878 C372.67613369 538.01322205 374.21589049 542.64767147 376 548 C337.39 548 298.78 548 259 548 C248.64823071 526.07860622 238.30154262 504.1551902 227.98388672 482.21777344 C224.99062375 475.85370223 221.9957466 469.49039063 219.00100708 463.12701416 C217.33394012 459.58470651 215.66697517 456.04235085 214 452.5 C213.33333382 451.0833331 212.66666716 449.66666644 212 448.25 C210.66666667 445.41666667 209.33333333 442.58333333 208 439.75 C207.66999496 439.04873993 207.33998993 438.34747986 206.99998474 437.62496948 C206.33336698 436.20840546 205.66675117 434.79184052 205.00013733 433.37527466 C203.33273852 429.83202992 201.66530559 426.28880125 199.99780273 422.74560547 C197.00653358 416.38951761 194.01548557 410.03332628 191.02575684 403.67651367 C189.70245908 400.86293642 188.37898806 398.04944069 187.05548096 395.23596191 C186.3947326 393.83128783 185.73404714 392.42658417 185.07342529 391.02185059 C181.24774794 382.88742127 177.4140609 374.75687182 173.56640625 366.6328125 C160.59400861 339.23806522 160.59400861 339.23806522 154.9375 326.875 C154.52580566 325.98071289 154.11411133 325.08642578 153.68994141 324.16503906 C153.32690918 323.36549805 152.96387695 322.56595703 152.58984375 321.7421875 C152.27909912 321.0601123 151.96835449 320.37803711 151.64819336 319.67529297 C151 318 151 318 151 316 C136.15 316 121.3 316 106 316 C106 392.56 106 469.12 106 548 C71.02 548 36.04 548 0 548 C0 367.16 0 186.32 0 0 Z M107 41 C107 118.88 107 196.76 107 277 C166.73523925 279.69007488 166.73523925 279.69007488 216 253 C232.96198921 234.7159734 239.86204091 210.19160157 243 186 C243.09571289 185.27683594 243.19142578 184.55367187 243.29003906 183.80859375 C244.21782722 175.8542236 244.24348739 167.87303507 244.25 159.875 C244.25067474 159.12733368 244.25134949 158.37966736 244.25204468 157.60934448 C244.20365903 123.65844506 238.61066432 88.15760094 214.01171875 62.859375 C185.18937255 34.65067194 144.1472713 41 107 41 Z " fill="#FFFFFF" transform="translate(717,9)"/>
<path d="M0 0 C27.06 0 54.12 0 82 0 C83.86377992 4.9700798 85.63527408 9.8249892 87.22631836 14.86914062 C87.4291638 15.51021067 87.63200924 16.15128071 87.84100151 16.81177711 C88.50936248 18.92595092 89.1746354 21.04108234 89.83984375 23.15625 C90.31832897 24.67232468 90.79698621 26.18834507 91.27580261 27.70431519 C92.56389015 31.78463628 93.84914854 35.86584333 95.13376617 39.947258 C96.21513693 43.3818037 97.29810854 46.81584384 98.38101196 50.24990654 C106.14687397 74.87870253 113.86699113 99.52167719 121.55834961 124.17382812 C127.67919293 143.79087585 133.83346021 163.3972723 140 183 C147.02299753 205.32618781 154.02564907 227.65856775 161 250 C168.09714205 272.73473041 175.22538624 295.45950557 182.37285233 318.17846298 C187.97802157 335.99552652 193.57280394 353.8157566 199.140625 371.64453125 C199.39872011 372.47097893 199.65681522 373.29742661 199.9227314 374.14891815 C202.02403765 380.87794477 204.12477175 387.60715 206.22535324 394.33640289 C213.95109101 419.08534936 221.71424271 443.82217562 229.51559448 468.54738998 C236.02762216 489.186479 242.53408676 509.8268757 248.9375 530.5 C249.2099353 531.37815369 249.48237061 532.25630737 249.76306152 533.16107178 C250.49871385 535.53393578 251.23229961 537.90742488 251.96484375 540.28125 C252.17606369 540.96265045 252.38728363 541.6440509 252.60490417 542.34609985 C254 546.88383299 254 546.88383299 254 548 C215.72 548 177.44 548 138 548 C136.03565306 542.76174148 134.20331954 537.62547373 132.62182617 532.27978516 C132.40270034 531.54746327 132.1835745 530.81514139 131.95780849 530.06062794 C131.23351913 527.63756264 130.51322945 525.21332809 129.79296875 522.7890625 C129.27427396 521.05071582 128.75533689 519.31244141 128.23617554 517.57423401 C126.83978057 512.89633859 125.44688529 508.21740782 124.05467606 503.53826523 C122.60280959 498.66074115 121.14774334 493.78417173 119.69311523 488.9074707 C116.41430971 477.91249826 113.14061951 466.91600661 109.86854553 455.91902924 C109.0168932 453.05677508 108.16513794 450.19455157 107.31335449 447.33233643 C102.79519713 432.14973802 98.27861804 416.96667074 93.76831055 401.78173828 C93.54749943 401.03834796 93.32668831 400.29495764 93.09918594 399.52904034 C92.07591912 396.08393185 91.05283777 392.63876848 90.03012085 389.1934967 C89.49422836 387.38878151 89.49422836 387.38878151 88.94750977 385.54760742 C88.64176529 384.51762131 88.33602081 383.48763519 88.02101135 382.42643738 C86.68685581 377.94911162 85.34245343 373.47484478 84 369 C6.285 368.505 6.285 368.505 -73 368 C-73.66 370.97 -74.32 373.94 -75 377 C-75.48901948 378.69405609 -76.00545064 380.38079252 -76.56542969 382.05273438 C-76.86105301 382.94256516 -77.15667633 383.83239594 -77.46125793 384.74919128 C-77.77826157 385.68789566 -78.0952652 386.62660004 -78.421875 387.59375 C-78.75769089 388.59968704 -79.09350677 389.60562408 -79.4394989 390.64204407 C-80.53846485 393.92956747 -81.6441017 397.21480275 -82.75 400.5 C-83.53029803 402.82893016 -84.31032366 405.15795161 -85.09008789 407.48706055 C-89.74512145 421.37430399 -94.45747062 435.24133193 -99.22140503 449.09155273 C-103.76809884 462.3191751 -108.20327895 475.58309233 -112.6171875 488.85546875 C-112.91084009 489.73817759 -113.20449268 490.62088642 -113.50704384 491.53034401 C-116.51016628 500.55789585 -119.51049622 509.58636034 -122.50247574 518.61761189 C-123.63326445 522.02909839 -124.76638769 525.4398065 -125.90001297 528.85035133 C-126.43622618 530.46553158 -126.97133676 532.08107833 -127.5053215 533.69699669 C-128.24149567 535.92455339 -128.98127674 538.15088041 -129.72192383 540.37695312 C-129.93948554 541.03839734 -130.15704725 541.69984156 -130.38120174 542.38132954 C-131.88603776 546.88603776 -131.88603776 546.88603776 -133 548 C-134.65738443 548.09346915 -136.31874644 548.11744977 -137.97875977 548.11352539 C-139.03978409 548.11344986 -140.10080841 548.11337433 -141.19398499 548.11329651 C-142.92520851 548.10555458 -142.92520851 548.10555458 -144.69140625 548.09765625 C-145.86638168 548.0962413 -147.04135712 548.09482635 -148.25193787 548.09336853 C-152.02215064 548.08774992 -155.79230504 548.07519426 -159.5625 548.0625 C-162.11132727 548.0574874 -164.66015547 548.05292408 -167.20898438 548.04882812 C-173.47267633 548.03777444 -179.73633399 548.02101821 -186 548 C-185.42000208 544.90238661 -184.73000233 541.94067966 -183.73168945 538.95214844 C-183.47605728 538.18222061 -183.22042511 537.41229279 -182.95704651 536.61903381 C-182.67860397 535.79084641 -182.40016144 534.962659 -182.11328125 534.109375 C-181.82021591 533.23022934 -181.52715057 532.35108368 -181.22520447 531.44529724 C-180.25748867 528.54578911 -179.28516038 525.64785285 -178.3125 522.75 C-177.62783361 520.70356404 -176.9432647 518.65709547 -176.25878906 516.6105957 C-171.41114199 502.13370278 -166.50137308 487.67841218 -161.55395508 473.23535156 C-156.50658151 458.50016723 -151.500101 443.7512866 -146.5 429 C-140.74480585 412.02376662 -134.97659015 395.05217498 -129.17626953 378.09130859 C-123.92582849 362.73601166 -118.71058442 347.36886212 -113.5 332 C-107.74449571 315.02387126 -101.97659044 298.05217583 -96.17626953 281.09130859 C-90.92582849 265.73601166 -85.71058442 250.36886212 -80.5 235 C-74.74449571 218.02387126 -68.97659044 201.05217583 -63.17626953 184.09130859 C-57.92582845 168.73601156 -52.71061991 153.36885017 -47.5 138 C-41.42807219 120.09106424 -35.34375378 102.18654254 -29.22241211 84.29443359 C-26.00187672 74.87838092 -22.79716317 65.45712075 -19.60546875 56.03125 C-18.84330684 53.78237403 -18.08109983 51.53351334 -17.31884766 49.28466797 C-16.20804893 46.00751704 -15.09800015 42.73012549 -13.99090576 39.45172119 C-12.96626189 36.41756063 -11.93845549 33.38448587 -10.91015625 30.3515625 C-10.6189238 29.48623901 -10.32769135 28.62091553 -10.02763367 27.72937012 C-6.86268255 18.41336752 -3.40560177 9.24377624 0 0 Z M8 127 C0.39358051 149.13158987 -7.12063264 171.2916023 -14.5 193.5 C-19.58181875 208.79327978 -24.70581276 224.06982377 -29.9375 239.3125 C-35.66821777 256.01342472 -41.28781244 272.75053586 -46.875 289.5 C-47.28225311 290.71926178 -47.68950623 291.93852356 -48.10910034 293.19473267 C-49.25935642 296.63966575 -50.4074387 300.08531441 -51.5546875 303.53125 C-51.90393784 304.57701706 -52.25318817 305.62278412 -52.61302185 306.70024109 C-52.92876663 307.65058731 -53.24451141 308.60093353 -53.56982422 309.58007812 C-53.84736542 310.41349731 -54.12490662 311.2469165 -54.41085815 312.10559082 C-55.04949348 313.82849764 -55.04949348 313.82849764 -55 315 C-14.41 315 26.18 315 68 315 C65.45370938 304.81483751 62.84521153 294.81289502 59.75390625 284.8046875 C59.34589074 283.47236234 58.938291 282.13990979 58.53106689 280.80734253 C57.66379256 277.97160182 56.79423438 275.13657678 55.92276001 272.30212402 C53.81251513 265.43748206 51.71529003 258.56885748 49.61757469 251.70037842 C49.13137522 250.10853952 48.64503731 248.51674291 48.15856361 246.92498779 C41.99727635 226.76331433 35.94752985 206.56841079 29.90359783 186.3713131 C28.87993115 182.95061052 27.85602747 179.52997894 26.83203125 176.109375 C26.53721957 175.12436949 26.53721957 175.12436949 26.2364521 174.11946487 C21.53090027 158.40089327 16.76853569 142.69956017 12 127 C10.68 127 9.36 127 8 127 Z " fill="#FFFFFF" transform="translate(1624,9)"/>
<path d="M0 0 C0.83917969 0.16628906 1.67835938 0.33257812 2.54296875 0.50390625 C44.82711898 9.03658231 80.86263282 30.59014306 111 61 C109.61314913 64.1275405 108.00755292 66.23312176 105.5793457 68.63183594 C104.88134354 69.32645935 104.18334137 70.02108276 103.46418762 70.73675537 C102.70901352 71.47846985 101.95383942 72.22018433 101.17578125 72.984375 C100.39615524 73.75879944 99.61652924 74.53322388 98.8132782 75.33111572 C96.31771638 77.80886979 93.81559722 80.27986043 91.3125 82.75 C88.82808268 85.20666521 86.34518253 87.66481455 83.86528015 90.1260376 C82.32318699 91.65602399 80.77842961 93.18333153 79.23054504 94.7074585 C75.16132322 98.73944703 71.27652604 102.85994526 67.55593872 107.21673584 C65.02791605 110.11410717 62.30244535 112.80474636 59.5625 115.5 C58.75135742 116.304375 58.75135742 116.304375 57.92382812 117.125 C56.61823383 118.41904036 55.30947004 119.70988174 54 121 C50.40126472 117.77326882 48.16333241 114.099208 45.8125 109.9375 C41.80075791 103.05772884 37.27046253 96.98665778 32 91 C30.92105469 89.73929688 30.92105469 89.73929688 29.8203125 88.453125 C12.6919424 68.8255977 -9.71734035 53.78248013 -35 47 C-36.15113281 46.68289062 -37.30226563 46.36578125 -38.48828125 46.0390625 C-60.44334823 40.8082378 -83.69406197 43.17840452 -103.17480469 54.81982422 C-118.8957241 64.9850094 -127.78183088 81.06005595 -131.96484375 98.9921875 C-137.18572282 123.5574631 -134.07335506 148.67179539 -120.86328125 170.2265625 C-100.36408534 200.73899247 -59.36433428 209.99511871 -26.0625 218.5625 C-11.95589094 222.21847498 2.11583682 225.92505994 16.0546875 230.18359375 C17.09265976 230.49865372 18.13063202 230.81371368 19.20005798 231.13832092 C44.17960758 238.89602455 67.07923473 251.03045922 87 268 C87.7321875 268.6084375 88.464375 269.216875 89.21875 269.84375 C103.27967445 281.7414553 113.5514856 297.29727074 121 314 C121.54398438 315.20140625 122.08796875 316.4028125 122.6484375 317.640625 C125.63039968 324.6338561 127.86757725 331.64430856 129.75 339 C129.94875732 339.76989258 130.14751465 340.53978516 130.35229492 341.33300781 C133.65680942 354.99298972 134.37780413 368.5226457 134.3125 382.5 C134.31034485 383.33282501 134.3081897 384.16565002 134.30596924 385.02371216 C134.12093192 429.72305944 121.50701493 474.53411614 90.2265625 507.59765625 C87.96205357 509.9801163 87.96205357 509.9801163 85.92578125 512.609375 C60.37019466 544.33355146 13.58814809 558.30288475 -25.07211304 562.71917725 C-33.36390827 563.51446914 -41.67791202 563.49346526 -50 563.4375 C-50.97046265 563.43445862 -51.94092529 563.43141724 -52.9407959 563.42828369 C-78.62281019 563.31009074 -103.23014505 559.96877226 -128 553 C-128.89444824 552.74911621 -129.78889648 552.49823242 -130.71044922 552.23974609 C-152.26166729 546.01650671 -172.78211167 536.08148264 -191 523 C-191.58716797 522.58492187 -192.17433594 522.16984375 -192.77929688 521.7421875 C-200.6897222 516.08298558 -207.66606114 509.59776957 -214.5625 502.75 C-215.3248999 501.99323975 -216.0872998 501.23647949 -216.87280273 500.45678711 C-228 489.18345637 -228 489.18345637 -228 484 C-226.65429688 482.58007812 -226.65429688 482.58007812 -224.71875 481.03125 C-221.1293117 478.02319959 -217.76228445 474.85720003 -214.46875 471.53125 C-213.9843042 471.04342041 -213.4998584 470.55559082 -213.00073242 470.05297852 C-211.49841172 468.5373564 -209.99876896 467.01913399 -208.5 465.5 C-202.80317902 459.72577155 -197.13059147 454.01069839 -190.95703125 448.73876953 C-186.18318495 444.49733573 -181.81227983 439.80538052 -177.359375 435.23242188 C-176.59625 434.45833984 -175.833125 433.68425781 -175.046875 432.88671875 C-174.36463867 432.18764404 -173.68240234 431.48856934 -172.97949219 430.76831055 C-171.0626382 429.05595566 -169.34683188 428.01698235 -167 427 C-166.72961914 427.48654053 -166.45923828 427.97308105 -166.18066406 428.47436523 C-143.75301291 468.59692556 -113.25781884 504.43060053 -67.9375 518.3125 C-42.82927756 524.96047253 -15.89129232 523.13324622 6.8125 509.9375 C27.02387077 497.42493369 37.32860818 478.22717795 42.80859375 455.671875 C47.22594419 431.90957609 42.97844442 407.45548734 30 387 C27.46789995 383.54436848 24.7665013 380.26898827 22 377 C21.33097656 376.11248047 21.33097656 376.11248047 20.6484375 375.20703125 C7.229936 357.87823023 -16.26342915 347.57628753 -36.55859375 341.22265625 C-37.37773254 340.96515594 -38.19687134 340.70765564 -39.04083252 340.44235229 C-48.09932319 337.61993055 -57.22490833 335.03762196 -66.35232544 332.44909668 C-102.05779067 322.29448658 -138.12765156 311.40716218 -167 287 C-167.75869385 286.35877197 -167.75869385 286.35877197 -168.53271484 285.70458984 C-195.52347853 262.62949603 -210.97558272 231.19025344 -215 196 C-215.11085938 195.113125 -215.22171875 194.22625 -215.3359375 193.3125 C-220.16428905 147.37791226 -209.2875891 97.4252877 -180 61 C-175.26915741 55.39997831 -170.18059185 50.18059185 -165 45 C-164.15308594 44.08347656 -164.15308594 44.08347656 -163.2890625 43.1484375 C-141.38130517 19.80073368 -108.68659156 6.4594611 -78 0 C-77.18660156 -0.17644043 -76.37320312 -0.35288086 -75.53515625 -0.53466797 C-51.53169248 -5.50582867 -23.939752 -4.99236208 0 0 Z " fill="#FFFFFF" transform="translate(1317,4)"/>
<path d="M0 0 C1.53548492 0.00648056 1.53548492 0.00648056 3.10198975 0.01309204 C18.08585193 0.08711634 32.82397501 0.41469797 47.5625 3.375 C48.45388672 3.55192383 49.34527344 3.72884766 50.26367188 3.91113281 C79.45856213 9.90965711 106.74568018 20.84470886 129.5625 40.375 C130.38234375 41.07238281 131.2021875 41.76976562 132.046875 42.48828125 C161.68267395 68.39659617 177.15774751 104.74870891 181.5625 143.375 C181.8925 149.645 182.2225 155.915 182.5625 162.375 C149.2325 162.375 115.9025 162.375 81.5625 162.375 C80.22972905 159.70945811 80.22411137 157.40134552 79.984375 154.42578125 C79.82509521 152.58137451 79.82509521 152.58137451 79.66259766 150.69970703 C79.60614075 150.04536682 79.54968384 149.39102661 79.49151611 148.71685791 C76.45080251 114.24679765 68.22852154 72.9138221 40.23046875 49.41796875 C25.19168457 38.26643089 7.30332615 33.42467531 -11.24609375 35.87890625 C-30.27782207 38.86177897 -46.70363846 47.83498017 -58.60546875 63.16796875 C-75.22781718 86.19893344 -83.72425637 112.78741833 -89.4375 140.375 C-89.62650879 141.27234863 -89.81551758 142.16969727 -90.01025391 143.09423828 C-106.44784009 223.02515648 -104.3619192 314.51704171 -64.14453125 492.2109375 C-51.4017856 511.20101155 -34.52434405 525.2513878 -11.671875 529.84375 C9.50749565 533.32248721 29.7051974 529.79747137 47.5625 517.375 C73.3630251 497.18328471 83.14042703 466.171759 89.5625 435.375 C91.0475 420.525 91.0475 420.525 92.5625 405.375 C121.9325 405.375 151.3025 405.375 181.5625 405.375 C180.386798 427.71333804 180.386798 427.71333804 178.875 436.3125 C178.70057373 437.31700195 178.52614746 438.32150391 178.34643555 439.35644531 C171.34899453 477.6474098 151.73521068 512.27448045 119.484375 534.77734375 C113.0898171 539.08998978 106.40929152 542.83449932 99.5625 546.375 C98.94938965 546.69452637 98.3362793 547.01405273 97.70458984 547.34326172 C81.96749867 555.42949739 64.90152082 560.15222717 47.5625 563.375 C46.79776367 563.52598145 46.03302734 563.67696289 45.24511719 563.83251953 C17.15169494 569.1800765 -15.3946518 568.78104089 -43.4375 563.375 C-44.34967285 563.20339355 -45.2618457 563.03178711 -46.20166016 562.85498047 C-73.01263598 557.65631785 -99.09095905 548.3329641 -121.4375 532.375 C-122.25661865 531.79492188 -122.25661865 531.79492188 -123.09228516 531.203125 C-143.9974803 516.20737512 -160.79634756 496.62623765 -173.36523438 474.28027344 C-174.07974601 473.01068126 -174.80242491 471.74565088 -175.53320312 470.48535156 C-220.17772679 393.28260825 -220.69865691 285.71518472 -198.97827148 154.54345703 C-188.85320835 117.68764783 -172.92524817 83.29451834 -146.4375 55.375 C-145.97005371 54.87500488 -145.50260742 54.37500977 -145.02099609 53.85986328 C-107.5466166 13.98498973 -53.30522449 -0.42987206 0 0 Z " fill="#FFFFFF" transform="translate(2069.4375,-0.375)"/>
<path d="M0 0 C93.39 0 186.78 0 283 0 C283 17.49 283 34.98 283 53 C224.59 53 166.18 53 106 53 C106 117.02 106 181.04 106 247 C152.2 247 198.4 247 246 247 C246 264.16 246 281.32 246 299 C199.8 299 153.6 299 106 299 C106 363.68 106 428.36 106 495 C164.41 495 222.82 495 283 495 C283 512.49 283 529.98 283 548 C189.61 548 96.22 548 0 548 C0 367.16 0 186.32 0 0 Z " fill="#FFFFFF" transform="translate(2277,9)"/>
<path d="M0 0 C93.39 0 186.78 0 283 0 C283 17.49 283 34.98 283 53 C224.59 53 166.18 53 106 53 C106 117.02 106 181.04 106 247 C151.87 247 197.74 247 245 247 C245 264.16 245 281.32 245 299 C199.13 299 153.26 299 106 299 C106 363.68 106 428.36 106 495 C164.41 495 222.82 495 283 495 C283 512.49 283 529.98 283 548 C189.61 548 96.22 548 0 548 C0 367.16 0 186.32 0 0 Z " fill="#FFFFFF" transform="translate(411,9)"/>
<path d="M0 0 C38.28 0 76.56 0 116 0 C126.85010817 41.82903769 137.69264933 83.65990492 148.5 125.5 C155.81949407 153.83693315 163.15099549 182.17070572 170.5 210.5 C178.0895919 239.75672205 185.65977206 269.01841388 193.21886063 298.28303146 C200.77772296 327.54649417 208.35049815 356.80631987 215.9375 386.0625 C216.17032684 386.96030182 216.40315369 387.85810364 216.64303589 388.78311157 C219.42807288 399.52223465 222.21370575 410.26120306 225 421 C225.99 421 226.98 421 228 421 C242.03470274 369.37876374 256.05546013 317.75374883 270.0625 266.125 C270.24601658 265.44857641 270.42953317 264.77215282 270.61861086 264.07523155 C282.75451332 219.3434344 294.88603644 174.61044982 307.01623535 129.87710571 C314.91101275 100.76302818 322.80669629 71.64919785 330.7086792 42.53707504 C331.30197681 40.35126917 331.89525226 38.16545729 332.48852539 35.97964478 C333.55083153 32.06582639 334.61328423 28.15204782 335.67578125 24.23828125 C335.97414383 23.13911377 336.27250641 22.03994629 336.57991028 20.9074707 C337.12492458 18.90017217 337.67086574 16.89312495 338.21792603 14.88638306 C338.76390904 12.87133565 339.30288786 10.8543831 339.83651733 8.83602905 C340.23684677 7.33201035 340.23684677 7.33201035 340.64526367 5.79760742 C341.00052376 4.44925056 341.00052376 4.44925056 341.36296082 3.07365417 C342 1 342 1 343 0 C344.43989407 -0.10036084 345.88473896 -0.13081651 347.328125 -0.1328125 C348.72611328 -0.13571289 348.72611328 -0.13571289 350.15234375 -0.13867188 C351.68568359 -0.1319043 351.68568359 -0.1319043 353.25 -0.125 C354.29800781 -0.12306641 355.34601563 -0.12113281 356.42578125 -0.11914062 C369.6255991 -0.0496679 382.81189794 0.47356608 396 1 C393.27228067 12.2244106 390.26360575 23.34270554 387.06616211 34.44165039 C386.57854731 36.14196908 386.09117894 37.84235845 385.60403252 39.54281139 C384.55307293 43.20938779 383.50041738 46.87547136 382.44642067 50.54117584 C380.73140629 56.50596122 379.02035653 62.47187992 377.30973816 68.43792725 C374.8249692 77.10257716 372.33850517 85.76673901 369.85089111 94.43057251 C363.51666094 116.49206887 357.19201805 138.55631501 350.86782742 160.62069106 C349.82699472 164.25194644 348.78606514 167.88317404 347.74512482 171.51439857 C337.36814103 207.71507097 327.02026109 243.92396433 316.69921875 280.140625 C316.36934078 281.29814671 316.03946281 282.45566843 315.69958854 283.64826655 C309.30582169 306.0842119 302.91585115 328.52123795 296.52814496 350.95890951 C293.3136692 362.25013097 290.09862101 373.5411893 286.8828125 384.83203125 C286.60436556 385.80969782 286.32591862 386.7873644 286.03903389 387.79465723 C275.09563958 426.21651434 264.07522586 464.61594884 253 503 C252.64628452 504.22594627 252.29256905 505.45189255 251.92813492 506.71498871 C247.95680231 520.47802552 243.97956418 534.23933833 240 548 C211.62 548 183.24 548 154 548 C149.73428762 533.9840879 145.51759009 519.99337419 141.5859375 505.88671875 C141.09373525 504.12863144 140.60127001 502.37061774 140.10856628 500.6126709 C139.06794233 496.89827535 138.02874395 493.18348552 136.99075317 489.46835327 C134.48820794 480.51225701 131.97711493 471.55855549 129.46634865 462.60476112 C128.89687769 460.57387896 128.32748984 458.54297349 127.75818443 456.51204491 C122.60499231 438.12947276 117.41097735 419.75874507 112.19016647 401.39527512 C110.26669797 394.62960247 108.34426888 387.86363431 106.421875 381.09765625 C106.20605711 380.33813219 105.99023922 379.57860813 105.76788139 378.79606819 C99.92881013 358.24487679 94.12086821 337.68488564 88.3125 317.125 C87.76130374 315.17403099 87.21010541 313.22306257 86.65890503 311.27209473 C84.15825058 302.42091902 81.65783144 293.56967685 79.15762615 284.71837425 C73.48170049 264.62429275 67.80355242 244.53083932 62.125 224.4375 C61.72698559 223.02914131 61.72698559 223.02914131 61.32093048 221.59233093 C57.21434797 207.0614425 53.10732616 192.53067825 49 178 C48.71301491 176.9847097 48.42602982 175.9694194 48.13034821 174.92336273 C44.54538309 162.24060602 40.95991916 149.55799052 37.37364578 136.87560368 C35.5965576 130.59090267 33.82022947 124.30598744 32.04447556 118.02090931 C26.50221943 98.40597798 20.94979709 78.79417709 15.34252357 59.19771957 C14.57802701 56.52500175 13.81436936 53.85204589 13.05107117 51.1789856 C12.80617982 50.32139082 12.56128847 49.46379604 12.30897617 48.58021355 C11.82491568 46.88494015 11.34089796 45.18965454 10.85692501 43.49435616 C9.47630631 38.66032067 8.08977158 33.82803395 6.69857693 28.99703217 C5.85873112 26.07581959 5.0241934 23.15311067 4.19112968 20.22995758 C3.80885816 18.89299046 3.42428959 17.55667759 3.03721809 16.22109222 C2.51324949 14.41231394 1.99808995 12.60099072 1.48339844 10.78955078 C1.19478943 9.78465607 0.90618042 8.77976135 0.60882568 7.74441528 C0 5 0 5 0 0 Z " fill="#FFFFFF" transform="translate(0,9)"/>
</svg>
